<?xml version="1.0" standalone="no"?>
<!DOCTYPE svg PUBLIC "-//W3C//DTD SVG 20010904//EN"
 "http://www.w3.org/TR/2001/REC-SVG-20010904/DTD/svg10.dtd">
<svg version="1.0" xmlns="http://www.w3.org/2000/svg"
 width="1024.000000pt" height="1024.000000pt" viewBox="0 0 1024.000000 1024.000000"
 preserveAspectRatio="xMidYMid meet">

<g transform="translate(0.000000,1024.000000) scale(0.100000,-0.100000)"
fill="#000000" stroke="none">
<path d="M8614 8618 c-76 -57 -134 -113 -134 -128 0 -27 -30 -79 -52 -91 -21
-11 -21 -11 1 25 13 20 19 36 14 36 -19 0 -83 -63 -83 -81 0 -11 5 -17 10 -14
22 14 8 -15 -17 -35 -68 -53 -173 -163 -173 -180 0 -11 2 -20 5 -20 8 0 75 71
75 80 0 14 41 33 51 23 4 -4 -29 -63 -74 -130 -95 -140 -102 -148 -95 -110 l5
28 -28 -27 c-16 -15 -29 -34 -29 -41 0 -7 -7 -13 -15 -13 -9 0 -33 -12 -55
-26 -45 -30 -59 -26 -41 12 6 14 9 29 7 33 -7 11 62 76 70 68 4 -4 -1 -16 -11
-27 -10 -11 -16 -22 -13 -25 3 -3 29 22 59 55 38 43 59 58 71 54 12 -3 18 0
18 10 0 9 -4 16 -10 16 -5 0 -10 7 -10 15 0 37 -35 12 -261 -187 -36 -32 -73
-58 -82 -58 -10 0 -26 -9 -37 -20 -11 -11 -27 -20 -35 -20 -8 0 -24 -5 -34
-12 -17 -10 -40 9 -208 172 -103 100 -214 202 -247 226 -58 44 -107 57 -122
33 -5 -8 -10 -6 -16 5 -18 32 -27 15 -11 -19 9 -19 23 -35 30 -35 7 0 19 -12
27 -28 8 -15 42 -51 75 -80 34 -30 66 -63 72 -74 11 -21 11 -21 -20 1 -47 33
-40 5 15 -60 25 -30 53 -60 62 -66 40 -31 44 1 6 47 -54 64 -14 37 67 -45 78
-79 121 -135 69 -90 -18 16 -14 3 20 -59 l43 -79 -27 -23 c-14 -13 -32 -21
-40 -18 -8 3 -35 32 -60 65 -25 32 -52 59 -60 59 -8 0 -34 23 -57 50 -23 28
-48 50 -55 50 -7 0 -18 10 -25 21 -6 12 -25 36 -43 53 -17 18 -46 51 -65 75
-19 23 -52 54 -75 68 -23 15 -47 34 -54 45 -7 10 -18 18 -24 18 -6 0 -5 -6 3
-16 12 -14 11 -16 -6 -13 -24 5 -65 64 -65 93 0 12 9 29 20 39 11 9 20 26 20
38 0 19 -4 21 -31 15 -17 -3 -35 -6 -40 -6 -5 0 -9 -7 -9 -15 0 -8 -7 -15 -15
-15 -23 0 -63 -21 -69 -37 -12 -30 60 -124 76 -101 10 16 47 -27 48 -54 0 -10
5 -18 11 -18 7 0 9 11 6 30 -4 17 -3 30 2 30 12 0 41 -34 41 -48 0 -7 7 -12
15 -12 8 0 15 -6 15 -13 0 -8 8 -18 19 -23 24 -12 431 -406 431 -418 0 -5 7
-17 15 -26 18 -20 11 -47 -14 -55 -10 -3 -56 -46 -104 -95 -48 -50 -91 -90
-97 -90 -6 0 -65 -55 -131 -122 -66 -68 -118 -115 -115 -105 8 26 1 21 -35
-25 -29 -38 -30 -40 -6 -19 15 14 27 20 27 14 0 -13 -57 -63 -71 -63 -10 0
-91 -73 -165 -147 -18 -18 -38 -33 -44 -33 -7 0 -9 -7 -6 -16 3 -9 6 -24 6
-33 0 -16 11 -18 103 -16 112 1 147 13 147 48 0 13 15 38 35 57 33 32 36 33
48 16 12 -17 14 -16 32 10 10 16 44 58 76 94 171 191 269 312 269 332 0 7 14
29 30 48 22 26 30 31 30 17 0 -10 -12 -29 -27 -43 -14 -13 -23 -27 -19 -31 3
-4 28 16 54 44 47 50 104 88 116 76 3 -4 6 -17 6 -31 0 -21 4 -23 24 -18 14 3
28 2 31 -4 3 -5 2 -10 -3 -10 -15 0 -1 -47 19 -66 12 -11 19 -13 19 -5 0 7 5
9 10 6 6 -4 8 -11 5 -16 -4 -5 3 -22 14 -38 12 -16 21 -38 21 -49 0 -12 14
-30 33 -43 17 -13 38 -31 45 -41 7 -10 19 -18 25 -18 7 0 21 -17 32 -38 12
-23 29 -38 43 -40 13 -2 22 -10 22 -20 0 -9 18 -37 41 -62 22 -25 38 -37 35
-27 -11 35 16 16 31 -22 10 -26 25 -44 43 -51 16 -7 34 -25 40 -41 14 -32 49
-40 70 -14 7 8 17 12 23 8 6 -4 8 4 5 21 -5 23 -3 26 16 20 17 -5 19 -4 9 7
-19 19 -16 39 6 39 11 0 21 -4 23 -8 4 -10 78 -24 78 -15 0 4 -10 18 -22 31
l-23 25 25 -6 c14 -3 34 -2 45 3 11 4 28 3 37 -2 16 -7 17 -5 8 17 -10 27 -2
33 18 13 6 -6 15 -9 18 -5 4 4 -36 51 -88 104 -52 54 -121 130 -153 168 -32
39 -77 90 -100 115 -264 287 -256 276 -258 327 -2 60 5 70 143 192 173 153
209 184 350 300 74 62 147 128 162 148 16 20 37 45 48 55 11 10 20 29 20 43 0
13 5 25 12 27 6 2 13 30 14 64 2 34 11 77 19 97 29 69 14 85 -41 45z m-104
-252 c0 -3 -4 -8 -10 -11 -5 -3 -10 -1 -10 4 0 6 5 11 10 11 6 0 10 -2 10 -4z
m-70 -76 c0 -5 -5 -10 -11 -10 -5 0 -7 5 -4 10 3 6 8 10 11 10 2 0 4 -4 4 -10z
m-77 -96 c3 -18 -3 -33 -25 -55 -35 -34 -56 -39 -34 -7 9 12 16 29 16 37 0 12
27 51 35 51 2 0 5 -11 8 -26z m-1443 -53 c-1 -11 -8 -8 -25 12 -33 37 -32 57
0 27 14 -13 25 -31 25 -39z m1338 -80 c-7 -12 -16 -21 -21 -21 -8 0 -2 14 16
38 16 20 20 6 5 -17z m-277 -208 c13 -15 11 -16 -11 -10 -14 4 -29 7 -33 7 -5
0 -5 5 -2 10 9 15 31 12 46 -7z m-386 -111 c-7 -7 -45 29 -45 41 0 6 11 0 25
-13 14 -13 23 -26 20 -28z m133 -217 c23 -28 40 -32 48 -10 10 26 31 17 82
-37 79 -83 112 -129 112 -155 0 -34 66 -144 137 -228 76 -91 93 -116 93 -137
0 -29 -29 -21 -68 21 -68 70 -102 110 -102 118 0 5 -14 24 -30 43 -27 32 -29
33 -30 13 0 -20 -20 -35 -20 -15 0 4 -40 52 -90 107 -49 55 -90 105 -90 111 0
7 -15 23 -34 37 -42 32 -60 76 -52 122 8 42 18 44 44 10z m-22 -202 c-12 -12
-29 15 -21 34 7 17 8 16 18 -5 5 -12 7 -25 3 -29z m-414 -155 c-7 -7 -12 -8
-12 -2 0 14 12 26 19 19 2 -3 -1 -11 -7 -17z m921 -81 c9 -4 17 -15 17 -26 0
-11 5 -23 10 -26 6 -3 10 -10 10 -16 0 -23 -22 -3 -75 69 -52 70 -54 74 -19
41 21 -20 47 -39 57 -42z m-1277 -178 c3 -6 2 -15 -4 -21 -7 -7 -14 -3 -21 11
-10 17 -9 21 3 21 8 0 18 -5 22 -11z m-46 -85 c0 -8 -4 -14 -10 -14 -5 0 -10
9 -10 21 0 11 5 17 10 14 6 -3 10 -13 10 -21z"/>
<path d="M7800 7489 c0 -20 45 -99 56 -99 2 0 4 13 4 29 0 21 -6 32 -20 36
-11 3 -20 15 -20 25 0 10 -4 22 -10 25 -6 3 -10 -4 -10 -16z"/>
<path d="M7900 7390 c0 -15 38 -87 49 -95 13 -8 -4 51 -24 81 -17 26 -25 30
-25 14z"/>
<path d="M7936 7195 c4 -8 11 -15 16 -15 6 0 5 6 -2 15 -7 8 -14 15 -16 15 -2
0 -1 -7 2 -15z"/>
<path d="M3478 8368 c-2 -24 1 -72 5 -108 6 -47 4 -89 -7 -151 -19 -101 -21
-185 -5 -195 7 -4 9 -22 6 -48 -8 -55 4 -196 16 -196 5 0 6 15 3 36 -4 19 -3
41 2 47 6 7 6 59 0 132 -9 133 0 313 13 240 3 -22 10 -119 14 -215 11 -273 12
-280 34 -280 12 0 31 48 31 79 0 40 20 93 34 88 16 -5 20 -144 5 -192 -8 -24
-11 -85 -10 -156 2 -95 0 -117 -13 -128 -9 -8 -16 -23 -16 -34 0 -12 -12 -34
-27 -49 -27 -28 -27 -29 -15 -98 7 -39 12 -88 12 -109 0 -22 3 -46 6 -55 11
-29 24 -5 24 44 0 27 5 52 11 56 9 5 10 -14 7 -71 -3 -44 -10 -80 -17 -85 -9
-5 -10 -16 -3 -41 6 -19 11 -26 11 -16 1 26 21 11 21 -16 1 -21 2 -21 25 6 28
31 37 34 34 10 -1 -10 -1 -45 0 -78 2 -55 3 -58 16 -41 12 16 17 17 28 7 10
-10 7 -17 -15 -35 -17 -13 -28 -32 -28 -46 0 -23 1 -23 17 -7 15 15 19 15 33
2 14 -12 15 -24 9 -63 -4 -26 -8 -85 -8 -131 -1 -73 -3 -82 -16 -71 -13 10
-15 9 -15 -9 0 -15 -6 -21 -24 -21 -13 0 -26 -7 -30 -15 -5 -15 -42 -20 -70
-9 -10 4 -16 18 -16 37 0 24 -3 28 -12 19 -7 -7 -20 -12 -30 -12 -10 0 -18 -4
-18 -10 0 -5 4 -10 10 -10 5 0 7 -7 4 -15 -5 -12 -25 -15 -92 -15 -47 0 -101
-5 -119 -12 -26 -10 -36 -10 -41 -1 -6 9 -104 12 -367 13 -198 0 -412 5 -475
11 -78 7 -145 7 -205 1 -50 -6 -94 -7 -100 -2 -5 4 -21 10 -35 12 -14 2 35 8
108 12 72 5 132 11 132 15 0 10 -292 1 -310 -10 -12 -7 -12 -8 3 -9 10 0 15
-4 12 -10 -3 -5 -17 -10 -31 -10 -21 0 -24 4 -19 20 6 18 2 19 -112 14 -247
-9 -277 -13 -290 -31 -12 -15 -14 -15 -25 -1 -11 14 -27 15 -123 7 -274 -22
-507 -51 -640 -79 -27 -6 -71 -14 -97 -17 -34 -4 -48 -10 -48 -21 0 -9 -10
-26 -22 -39 l-21 -23 59 0 c32 0 113 7 179 15 236 29 301 35 350 32 28 -1 113
4 190 11 291 26 499 32 1153 32 532 0 671 3 670 13 -2 7 7 12 22 12 15 0 24
-5 22 -12 -3 -16 65 -18 70 -3 2 6 21 13 43 17 37 6 39 5 26 -10 -12 -16 -7
-17 67 -17 63 0 81 3 86 16 10 27 26 5 27 -39 2 -30 3 -34 6 -14 5 31 18 34
45 10 17 -15 18 -15 18 0 0 13 9 17 35 17 40 0 44 -9 15 -35 -43 -39 16 -36
63 3 20 17 18 21 22 -73 2 -33 8 -125 13 -205 6 -80 10 -253 8 -385 -3 -252 4
-335 31 -335 12 0 13 -6 8 -22 -15 -43 -18 -180 -4 -189 10 -6 10 -18 0 -62
-13 -60 -10 -343 7 -557 18 -227 16 -351 -4 -366 -19 -15 -166 -6 -179 11 -8
10 -13 9 -24 -3 -12 -12 -31 -14 -105 -8 -50 3 -163 9 -251 12 -185 7 -196 8
-169 29 19 14 19 14 -1 15 -11 0 -28 -9 -37 -19 -13 -15 -25 -18 -64 -14 -27
3 -55 10 -61 16 -9 6 -13 6 -13 -2 0 -6 -17 -11 -40 -11 -29 0 -40 4 -40 15 0
8 -9 15 -19 15 -28 0 -52 -11 -45 -21 9 -16 -82 -10 -117 8 -37 19 -48 19
-354 11 -283 -7 -441 -26 -770 -94 -201 -41 -288 -63 -304 -78 -9 -8 -29 -18
-44 -21 -25 -7 -28 -11 -22 -34 3 -14 13 -32 22 -38 28 -21 175 -15 378 17
222 34 318 46 487 62 121 11 161 13 308 16 76 2 89 2 147 2 17 0 34 4 38 10 5
8 131 9 418 5 227 -3 501 -6 610 -7 109 -1 200 -5 203 -10 3 -4 16 -8 29 -8
13 0 27 -4 30 -10 3 -5 2 -10 -4 -10 -5 0 -4 -12 4 -27 21 -45 25 -828 5
-1053 -4 -55 -4 -99 1 -105 5 -5 9 -27 10 -50 0 -22 3 -34 6 -27 2 6 13 12 22
12 15 0 19 11 23 71 3 39 11 76 17 82 8 8 11 6 12 -8 0 -17 2 -16 11 5 5 14
10 46 9 72 0 33 4 50 15 56 15 8 14 10 -1 16 -14 5 -15 9 -5 21 7 8 19 15 27
15 10 0 13 6 9 16 -3 9 -6 20 -6 26 0 6 -6 6 -15 -2 -19 -16 -19 -11 6 73 22
73 22 74 3 269 -4 41 -2 80 5 99 7 21 9 57 4 98 -6 55 -8 61 -14 36 -6 -28 -7
-26 -8 12 0 23 7 64 17 90 13 34 18 74 18 141 -1 78 2 93 16 98 22 6 180 3
193 -5 6 -3 39 -6 75 -7 48 -1 74 3 98 17 40 23 53 24 46 4 -5 -12 2 -15 34
-15 22 0 48 -3 57 -7 14 -5 16 -2 11 15 -10 31 14 39 35 11 18 -24 19 -24 206
-24 221 0 244 2 236 21 -7 20 144 20 166 0 28 -25 171 -26 171 -1 0 8 5 15 10
15 21 0 9 20 -12 21 -18 1 -16 3 9 10 40 12 52 28 19 26 -14 -1 -25 3 -26 8
-3 22 -80 27 -80 5 0 -4 -15 -11 -32 -14 l-33 -7 30 -14 c28 -13 26 -13 -48
-14 -50 -1 -76 3 -72 9 3 6 22 10 41 10 19 0 34 5 34 10 0 6 -16 8 -40 4 -35
-6 -43 -3 -66 21 -21 23 -27 25 -40 14 -14 -12 -14 -14 2 -19 17 -6 17 -7 0
-13 -29 -11 -68 -8 -118 10 -46 16 -50 16 -100 -2 -29 -10 -57 -24 -61 -32 -9
-15 -87 -18 -87 -3 0 6 12 11 28 11 26 2 26 2 2 6 -14 2 -30 11 -36 19 -10 12
-15 9 -34 -21 -12 -19 -25 -35 -30 -35 -30 0 -13 60 18 61 14 0 13 2 -4 9 -11
4 -59 6 -106 3 -67 -5 -85 -9 -81 -19 3 -8 1 -14 -5 -14 -6 0 -12 5 -14 12 -5
15 -55 -20 -63 -44 -11 -32 -25 -19 -25 22 l0 40 -170 0 c-155 0 -191 6 -160
25 30 18 -3 165 -37 165 -7 0 -13 4 -13 9 0 5 6 11 13 13 15 6 27 289 12 300
-6 5 -5 12 3 20 6 6 12 17 12 23 0 5 -5 3 -11 -5 -7 -11 -9 38 -5 165 l4 180
-23 -27 c-30 -35 -43 -36 -20 -2 11 17 14 29 7 36 -7 7 -7 21 0 42 6 17 11 74
12 128 1 76 -2 94 -11 86 -9 -7 -13 -7 -13 0 0 6 5 14 11 17 6 4 8 13 5 21 -3
7 -1 16 4 19 8 5 7 110 0 110 -6 0 -7 561 -1 578 4 11 0 42 -11 75 -24 73 -25
223 -2 246 12 12 38 16 114 16 64 0 101 4 106 12 4 7 3 8 -5 4 -15 -9 -91 3
-91 14 0 5 14 12 32 15 26 6 29 9 15 17 -16 8 -84 17 -148 18 -33 0 -42 26
-45 125 -1 39 -4 117 -8 175 -12 182 -25 555 -30 830 -3 146 -10 321 -16 390
-6 69 -8 179 -4 246 6 119 6 122 -16 134 -18 9 -21 18 -16 41 4 22 1 31 -14
39 -15 8 -20 8 -20 -1 0 -6 -6 -9 -14 -6 -8 3 -24 -5 -37 -19 -29 -31 -39 -30
-39 2 0 14 -4 23 -9 19 -5 -3 -11 7 -13 21 -4 32 -39 47 -135 58 l-62 7 -3
-43z m172 -103 c0 -1 -9 -5 -20 -8 -12 -3 -20 0 -20 8 0 8 8 11 20 8 11 -3 20
-7 20 -8z m-83 -1082 c-3 -10 -5 -4 -5 12 0 17 2 24 5 18 2 -7 2 -21 0 -30z
m123 -252 c0 -12 -20 -25 -27 -18 -7 7 6 27 18 27 5 0 9 -4 9 -9z m-1800 -576
c0 -8 -7 -15 -16 -15 -14 0 -14 3 -4 15 7 8 14 15 16 15 2 0 4 -7 4 -15z
m-550 -25 c0 -5 -8 -10 -17 -10 -15 0 -16 2 -3 10 19 12 20 12 20 0z m2260
-41 c0 -5 -4 -9 -10 -9 -5 0 -10 7 -10 16 0 8 5 12 10 9 6 -3 10 -10 10 -16z
m450 0 c0 -10 -12 -11 -34 -3 -9 3 -14 10 -11 14 6 10 45 1 45 -11z m-1593 5
c-3 -3 -12 -4 -19 -1 -8 3 -5 6 6 6 11 1 17 -2 13 -5z m96 -1 c-7 -2 -19 -2
-25 0 -7 3 -2 5 12 5 14 0 19 -2 13 -5z m557 -3 c0 -5 -17 -10 -37 -10 -28 0
-34 3 -23 10 20 13 60 13 60 0z m-247 -7 c-13 -2 -33 -2 -45 0 -13 2 -3 4 22
4 25 0 35 -2 23 -4z m300 0 c-7 -2 -19 -2 -25 0 -7 3 -2 5 12 5 14 0 19 -2 13
-5z m334 1 c-3 -3 -12 -4 -19 -1 -8 3 -5 6 6 6 11 1 17 -2 13 -5z m443 -1239
c0 -8 -4 -15 -10 -15 -5 0 -10 7 -10 15 0 8 5 15 10 15 6 0 10 -7 10 -15z m0
-325 c0 -19 -17 -36 -27 -26 -3 3 -2 17 1 31 7 28 26 25 26 -5z m-80 -300 c0
-5 -5 -10 -11 -10 -5 0 -7 5 -4 10 3 6 8 10 11 10 2 0 4 -4 4 -10z m-507 -407
c-7 -2 -19 -2 -25 0 -7 3 -2 5 12 5 14 0 19 -2 13 -5z m329 -23 c-23 -25 -55
-23 -60 2 -2 13 6 17 35 20 48 4 49 3 25 -22z m1638 26 c0 -2 -7 -6 -15 -10
-8 -3 -15 -1 -15 4 0 6 7 10 15 10 8 0 15 -2 15 -4z m-1500 -16 c0 -5 -7 -10
-15 -10 -8 0 -15 5 -15 10 0 6 7 10 15 10 8 0 15 -4 15 -10z m-465 -20 c4 -6
-6 -10 -24 -10 -16 0 -33 5 -36 10 -4 6 6 10 24 10 16 0 33 -4 36 -10z m1655
0 c10 -7 -8 -9 -60 -9 -56 1 -67 3 -45 9 44 11 88 11 105 0z m-1420 -10 c15
-6 -17 -7 -80 -3 -58 3 -107 7 -109 9 -9 8 165 2 189 -6z m490 0 c0 -12 -28
-25 -36 -17 -9 9 6 27 22 27 8 0 14 -5 14 -10z m373 3 c-7 -2 -19 -2 -25 0 -7
3 -2 5 12 5 14 0 19 -2 13 -5z m424 -29 c-3 -3 -12 -4 -19 -1 -8 3 -5 6 6 6
11 1 17 -2 13 -5z m395 -6 c-9 -9 -15 -9 -24 0 -9 9 -7 12 12 12 19 0 21 -3
12 -12z m-1345 -1100 c-3 -7 -5 -2 -5 12 0 14 2 19 5 13 2 -7 2 -19 0 -25z
m-55 -170 c-7 -7 -12 -8 -12 -2 0 6 3 14 7 17 3 4 9 5 12 2 2 -3 -1 -11 -7
-17z"/>
<path d="M6186 8383 c-3 -3 -19 -6 -35 -5 -18 0 -40 -9 -56 -24 -14 -13 -31
-24 -38 -24 -7 0 -5 -6 5 -14 11 -8 14 -16 8 -22 -6 -6 -4 -25 5 -49 8 -22 14
-59 15 -82 0 -23 3 -50 7 -60 6 -15 9 -13 14 12 6 27 7 26 8 -13 1 -41 24 -82
38 -68 3 3 10 29 14 57 9 60 17 71 30 46 6 -9 16 -17 24 -17 8 0 17 -15 21
-37 10 -53 -2 -359 -32 -793 -22 -319 -25 -414 -20 -637 7 -257 6 -263 -13
-263 -18 0 -19 -2 -6 -27 9 -17 11 -29 5 -31 -5 -2 -2 -11 7 -20 14 -14 15
-38 10 -194 -4 -130 -2 -187 8 -214 7 -21 10 -55 7 -76 -3 -25 -1 -38 7 -38 8
0 10 -12 6 -37 -3 -25 -2 -31 3 -18 8 17 9 16 15 -11 3 -17 8 -138 12 -270 3
-131 8 -270 11 -309 3 -38 7 -126 8 -195 2 -110 15 -368 31 -600 13 -201 13
-310 -1 -310 -8 0 -14 -6 -14 -14 0 -9 -23 -15 -81 -20 -44 -4 -84 -4 -90 -1
-5 4 -9 1 -9 -5 0 -7 26 -11 78 -10 124 2 132 1 132 -15 0 -9 -9 -15 -24 -15
-22 0 -23 -2 -13 -40 11 -39 27 -54 27 -25 0 8 4 15 9 15 16 0 24 -84 29 -320
9 -400 9 -396 -9 -416 -23 -27 -28 -88 -13 -162 14 -72 21 -83 35 -62 8 13 12
11 28 -7 27 -32 41 -29 41 10 1 29 2 31 15 14 13 -18 14 -18 24 2 14 25 14
310 1 366 -5 22 -12 163 -16 314 -7 294 -7 297 43 284 18 -4 23 -1 23 15 0 12
-8 25 -17 31 -16 9 -16 11 7 20 l25 10 -27 0 c-28 1 -37 14 -18 26 20 12 9 21
-20 17 -21 -3 -30 0 -31 9 0 8 -2 32 -4 54 -2 22 -6 92 -10 155 -3 63 -11 187
-17 275 -5 88 -12 207 -14 265 -2 58 -8 132 -14 165 -5 33 -9 83 -8 110 2 28
-1 287 -5 577 -5 366 -4 529 3 533 6 4 8 15 5 25 -3 11 -3 35 1 55 l6 35 72 0
c51 0 78 5 92 16 18 14 14 15 -46 10 -36 -3 -71 -2 -78 2 -22 14 -2 42 29 42
22 0 27 -4 23 -17 -5 -17 -5 -17 8 -1 8 9 30 18 49 20 64 6 29 23 -53 26 -102
3 -115 7 -98 27 10 12 10 18 0 30 -9 11 -11 40 -6 102 3 49 15 237 26 418 11
182 28 391 39 465 10 74 19 151 20 170 1 19 3 60 6 90 3 45 6 263 4 345 -1 30
8 116 16 158 5 25 4 37 -4 37 -6 0 -11 -16 -11 -35 0 -19 -4 -35 -10 -35 -13
0 -13 55 0 99 6 23 6 39 -1 47 -14 18 -107 46 -143 43 -17 -1 -38 1 -46 4 -28
10 -78 16 -84 10z m164 -47 c0 -17 -25 -27 -46 -19 -14 5 -12 8 7 19 31 17 39
17 39 0z m-117 -151 c-3 -8 -9 -15 -14 -15 -10 0 -12 24 -3 33 11 11 24 -3 17
-18z m23 -1912 c-10 -10 -19 5 -10 18 6 11 8 11 12 0 2 -7 1 -15 -2 -18z m-9
-200 c-3 -10 -5 -2 -5 17 0 19 2 27 5 18 2 -10 2 -26 0 -35z m-6 -169 l-9 -39
-1 50 c-1 33 2 46 9 39 7 -7 7 -24 1 -50z m119 -2892 c0 -15 -2 -15 -10 -2
-13 20 -13 33 0 25 6 -3 10 -14 10 -23z"/>
<path d="M8269 8300 c-9 -5 -24 -22 -34 -37 l-18 -27 31 24 c17 14 33 31 36
38 6 14 6 14 -15 2z"/>
<path d="M4968 8203 c-27 -2 -48 -9 -48 -14 0 -6 10 -10 23 -9 41 4 68 0 63
-9 -3 -4 -40 -11 -82 -14 -60 -6 -86 -13 -129 -39 -30 -18 -52 -34 -50 -36 5
-5 91 27 125 46 20 12 19 8 -8 -17 -18 -17 -41 -31 -52 -31 -11 0 -20 -4 -20
-10 0 -10 -55 -42 -79 -46 -7 -2 -18 -7 -24 -13 -6 -6 -19 -11 -29 -11 -10 0
-28 -9 -40 -20 -13 -12 -32 -29 -43 -39 -26 -24 -49 -31 -65 -21 -11 7 -11 12
0 27 8 10 2 7 -13 -6 -31 -28 -34 -41 -9 -41 16 -1 16 -1 -1 -11 -13 -8 -16
-18 -11 -49 6 -36 4 -40 -20 -51 -20 -9 -26 -19 -26 -43 0 -18 -6 -40 -14 -51
-7 -11 -21 -43 -30 -70 -9 -28 -24 -61 -33 -74 -13 -20 -17 -21 -24 -8 -10 16
-7 23 41 117 15 30 26 59 23 63 -10 17 -38 -22 -80 -113 -50 -105 -75 -214
-74 -324 0 -67 38 -286 51 -296 26 -20 54 -90 30 -75 -25 15 -6 -20 25 -48 19
-17 35 -36 35 -42 0 -11 15 -27 119 -130 23 -22 41 -43 41 -47 0 -5 11 -8 24
-8 13 0 43 -9 67 -20 24 -11 56 -20 72 -20 16 0 27 -5 27 -14 0 -18 45 -26
144 -26 51 0 91 5 109 15 15 8 34 12 42 8 9 -3 22 1 31 8 9 7 25 14 36 16 11
2 29 10 41 18 12 8 27 15 35 15 7 0 25 14 39 30 13 17 31 30 39 30 8 0 14 7
14 17 0 9 17 39 39 67 73 96 169 263 211 366 29 71 40 180 17 180 -12 0 -14
10 -12 48 2 26 7 61 13 77 5 17 5 37 1 45 -13 26 -39 156 -39 194 0 48 -112
269 -146 287 -14 7 -23 18 -20 25 3 7 -3 34 -13 60 -19 50 -82 104 -121 104
-11 0 -42 9 -70 20 -28 11 -63 19 -78 18 -15 -1 -48 -3 -74 -5z m37 -113 c-3
-5 -11 -10 -16 -10 -6 0 -7 5 -4 10 3 6 11 10 16 10 6 0 7 -4 4 -10z m-104
-49 c-30 -37 -140 -124 -175 -137 -28 -11 -18 24 12 38 15 7 27 21 27 29 0 25
26 51 72 71 23 10 45 23 48 28 3 6 15 10 26 10 19 0 18 -3 -10 -39z m-181 -71
c-7 -14 -21 -20 -43 -20 l-32 1 35 19 c45 25 53 25 40 0z m389 -45 c110 -74
136 -107 175 -220 18 -55 39 -125 47 -155 29 -115 2 -365 -49 -454 -36 -62
-159 -203 -200 -228 -67 -41 -230 -63 -287 -38 l-20 9 20 1 c12 1 2 8 -25 18
-35 13 -49 26 -64 57 -11 22 -27 45 -36 52 -27 19 -45 100 -45 198 0 134 12
198 61 321 49 124 51 132 27 113 -15 -12 -16 -12 -9 6 17 43 24 75 17 75 -17
0 -43 -39 -37 -58 6 -19 -45 -102 -64 -102 -5 0 -18 -10 -30 -22 -19 -21 -20
-21 -20 -2 0 11 12 31 26 45 25 23 43 58 59 110 l7 24 -26 -27 c-22 -23 -28
-25 -50 -15 -26 12 -25 27 1 27 9 0 31 16 49 35 l32 35 -25 6 -24 6 22 24 c13
14 28 23 33 20 6 -2 19 3 28 11 30 27 40 4 13 -29 -15 -18 -22 -35 -17 -40 13
-13 38 0 50 27 6 13 24 32 39 42 15 10 54 46 85 79 60 64 106 93 146 94 13 0
54 -20 91 -45z m-444 -84 c-27 -45 -107 -109 -113 -92 -6 19 39 81 86 117 54
41 64 32 27 -25z m-195 -171 c0 -5 -8 -10 -18 -10 -9 0 -23 -9 -30 -21 -18
-28 -26 -18 -11 15 8 17 20 26 36 26 12 0 23 -4 23 -10z m-140 -159 c0 -6 -4
-13 -10 -16 -5 -3 -10 1 -10 9 0 9 5 16 10 16 6 0 10 -4 10 -9z m50 -33 c0
-18 -34 -105 -44 -115 -5 -4 -6 7 -4 25 3 18 0 36 -5 39 -19 12 -26 -24 -20
-101 5 -63 4 -78 -7 -71 -9 5 -10 22 -6 56 6 41 4 48 -9 43 -17 -7 -21 21 -4
32 6 3 8 17 4 31 -9 39 3 66 29 59 11 -3 28 -1 36 4 21 13 30 12 30 -2z m200
-25 c0 -10 -20 -40 -20 -31 0 3 -3 13 -6 22 -4 11 -1 16 10 16 9 0 16 -3 16
-7z m-153 -155 c-3 -8 -6 -5 -6 6 -1 11 2 17 5 13 3 -3 4 -12 1 -19z m-107
-124 c0 -8 -4 -12 -10 -9 -5 3 -10 10 -10 16 0 5 5 9 10 9 6 0 10 -7 10 -16z
m130 12 c0 -3 -4 -8 -10 -11 -5 -3 -10 -1 -10 4 0 6 5 11 10 11 6 0 10 -2 10
-4z m-50 -112 c0 -9 9 -32 21 -51 14 -22 19 -42 15 -58 -9 -34 -23 -31 -34 8
-15 48 -21 117 -11 117 5 0 9 -7 9 -16z m-36 -80 c9 -24 7 -28 -9 -14 -17 14
-20 30 -6 30 5 0 12 -7 15 -16z m156 -25 c0 -6 -4 -7 -10 -4 -5 3 -10 11 -10
16 0 6 5 7 10 4 6 -3 10 -11 10 -16z m0 -71 c0 -16 -3 -19 -11 -11 -6 6 -8 16
-5 22 11 17 16 13 16 -11z m147 -89 c19 -12 32 -23 30 -25 -7 -7 -77 26 -77
36 0 15 9 12 47 -11z m313 -8 c-15 -9 -75 -15 -115 -11 l-20 1 20 9 c27 12
135 12 115 1z m7 -197 c-3 -3 -12 -4 -19 -1 -8 3 -5 6 6 6 11 1 17 -2 13 -5z"/>
<path d="M4805 7790 c-3 -5 -1 -10 4 -10 6 0 11 5 11 10 0 6 -2 10 -4 10 -3 0
-8 -4 -11 -10z"/>
<path d="M2355 8181 c5 -18 2 -19 -29 -14 -38 6 -51 -11 -16 -20 11 -3 20 -13
20 -22 0 -11 -5 -15 -15 -11 -21 8 -19 0 10 -38 27 -35 32 -52 14 -40 -17 10
-200 5 -213 -5 -6 -5 -30 -6 -56 -1 -62 12 -236 2 -288 -17 -25 -8 -56 -13
-73 -9 -25 5 -31 2 -39 -20 -6 -16 -16 -24 -24 -21 -8 3 -13 -1 -12 -11 1 -11
-6 -17 -19 -17 -11 0 -24 -10 -30 -22 -5 -13 -15 -23 -22 -23 -7 0 -13 -5 -13
-12 0 -7 -10 -23 -23 -37 -36 -40 -118 -178 -123 -208 -3 -16 -11 -37 -18 -48
-20 -32 -26 -66 -14 -85 11 -17 9 -29 -11 -60 -20 -31 -61 -149 -62 -177 0
-24 -2 -25 -8 -8 -5 11 -7 23 -4 28 2 4 -1 7 -6 7 -14 0 -14 -11 4 -133 24
-157 42 -225 85 -314 42 -86 46 -98 30 -88 -5 3 -10 0 -10 -7 0 -20 131 -142
175 -163 22 -10 50 -18 63 -17 13 1 22 -4 22 -13 0 -8 9 -19 19 -25 25 -13 34
-13 26 0 -10 16 83 12 116 -5 20 -11 41 -14 67 -9 33 6 36 5 24 -9 -18 -22 8
-29 100 -26 40 1 96 -2 124 -6 34 -5 54 -4 58 4 4 6 12 11 17 11 6 0 7 -4 4
-10 -9 -15 14 -12 121 15 121 31 151 43 167 65 7 10 26 26 43 36 42 25 119
112 129 144 l7 25 -29 -27 c-35 -33 -42 -35 -40 -8 1 10 3 17 6 14 9 -9 61
110 61 140 l0 30 -28 -27 c-15 -15 -31 -27 -35 -27 -5 0 15 66 39 124 5 14 4
17 -4 12 -7 -4 -12 -5 -12 -3 0 10 53 122 60 127 4 3 10 28 13 55 6 41 5 46
-5 28 -16 -33 -28 -28 -28 10 0 43 19 246 25 275 8 33 29 22 37 -19 4 -19 5 9
3 61 -4 95 -1 98 26 25 20 -53 29 1 13 80 -7 39 -11 84 -8 101 6 32 -9 74 -26
74 -6 0 -5 -11 1 -27 6 -17 8 -50 3 -83 l-7 -55 -13 30 c-7 17 -13 41 -14 54
0 13 -2 22 -5 19 -3 -3 -2 -37 3 -77 5 -39 5 -76 1 -82 -7 -12 -17 28 -39 161
-11 58 -34 120 -45 120 -2 0 -1 -10 4 -22 18 -50 22 -80 10 -72 -9 5 -10 2 -6
-10 4 -10 10 -30 13 -44 6 -26 6 -27 -10 -7 -16 19 -17 16 -13 -62 3 -46 3
-83 1 -83 -10 0 -33 61 -38 103 -19 154 -20 140 6 134 22 -6 22 -5 4 8 -13 10
-17 21 -12 38 4 18 -8 48 -50 118 -31 52 -67 105 -80 120 -13 14 -24 32 -24
40 0 15 -55 69 -72 69 -5 0 -7 -9 -3 -19z m-515 -186 c-18 -18 -80 -32 -80
-18 0 13 39 31 70 32 21 1 23 -1 10 -14z m536 -180 c19 -8 55 -34 78 -59 37
-37 46 -56 60 -116 17 -78 22 -220 7 -220 -5 0 -11 9 -13 20 -2 12 -7 19 -13
18 -5 -2 -9 -7 -7 -12 1 -4 5 -49 7 -100 4 -76 0 -109 -22 -196 -38 -153 -61
-195 -166 -302 -90 -91 -117 -108 -197 -124 l-25 -6 24 20 c23 19 23 19 -138
25 -209 9 -216 12 -268 114 -32 62 -43 99 -53 171 -20 142 -11 210 43 336 57
132 117 224 194 298 72 68 115 91 218 113 44 9 96 21 115 25 58 13 119 11 156
-5z m164 -55 c0 -5 -4 -10 -10 -10 -5 0 -10 5 -10 10 0 6 5 10 10 10 6 0 10
-4 10 -10z m-2 -55 c-3 -3 -9 2 -12 12 -6 14 -5 15 5 6 7 -7 10 -15 7 -18z
m-803 -178 c-21 -45 -51 -116 -69 -157 l-31 -75 2 -187 c0 -104 -2 -188 -6
-188 -11 0 -36 29 -51 60 -24 45 -33 301 -12 322 7 7 12 24 12 38 0 14 7 36
17 49 9 13 35 63 58 111 24 48 58 104 76 125 l34 39 3 -27 c2 -16 -12 -63 -33
-110z m-265 -318 c6 -22 15 -91 20 -152 5 -62 12 -127 16 -145 l6 -32 -30 28
c-36 34 -76 107 -67 122 3 5 15 10 27 10 15 0 18 3 10 13 -10 11 -14 72 -11
165 1 44 16 40 29 -9z m-40 -139 c0 -5 -4 -10 -10 -10 -5 0 -10 5 -10 10 0 6
5 10 10 10 6 0 10 -4 10 -10z m190 -208 c0 -13 -3 -12 -15 4 -19 25 -19 40 0
24 8 -7 15 -20 15 -28z m-129 -179 c13 -16 12 -17 -3 -4 -10 7 -18 15 -18 17
0 8 8 3 21 -13z m466 -179 c-3 -3 -12 -4 -19 -1 -8 3 -5 6 6 6 11 1 17 -2 13
-5z"/>
<path d="M2178 6773 c7 -3 16 -2 19 1 4 3 -2 6 -13 5 -11 0 -14 -3 -6 -6z"/>
<path d="M7150 8124 c0 -17 70 -87 78 -79 5 4 -65 95 -74 95 -2 0 -4 -7 -4
-16z"/>
<path d="M6172 7967 c-17 -20 -12 -40 6 -28 8 5 12 16 10 26 -3 17 -4 17 -16
2z"/>
<path d="M5390 7966 c0 -2 8 -10 18 -17 15 -13 16 -12 3 4 -13 16 -21 21 -21
13z"/>
<path d="M2655 7945 c4 -11 11 -40 16 -64 13 -64 22 -65 17 -3 -3 33 -12 60
-23 70 -17 16 -17 16 -10 -3z"/>
<path d="M7420 7889 c0 -9 7 -22 15 -29 19 -16 19 0 0 26 -12 16 -14 16 -15 3z"/>
<path d="M8145 7869 c-11 -17 1 -21 15 -4 8 9 8 15 2 15 -6 0 -14 -5 -17 -11z"/>
<path d="M4425 7860 c4 -6 11 -8 16 -5 14 9 11 15 -7 15 -8 0 -12 -5 -9 -10z"/>
<path d="M6205 7720 c-3 -6 1 -7 9 -4 18 7 21 14 7 14 -6 0 -13 -4 -16 -10z"/>
<path d="M3480 7625 c0 -14 5 -25 10 -25 6 0 10 11 10 25 0 14 -4 25 -10 25
-5 0 -10 -11 -10 -25z"/>
<path d="M6198 7630 c-7 -24 -3 -38 8 -28 3 4 4 17 2 30 l-3 23 -7 -25z"/>
<path d="M3560 7600 c0 -5 -6 -7 -13 -4 -10 3 -14 -4 -15 -26 0 -16 4 -30 9
-30 5 0 9 -7 9 -15 0 -8 9 -15 20 -15 12 0 17 5 14 14 -3 8 -1 17 5 21 18 10
13 25 -8 25 -14 0 -18 5 -14 20 3 11 3 20 -1 20 -3 0 -6 -4 -6 -10z"/>
<path d="M7410 7540 c0 -5 -17 -29 -37 -52 l-37 -43 47 45 c46 44 56 60 37 60
-5 0 -10 -4 -10 -10z"/>
<path d="M3500 7410 c0 -11 4 -20 9 -20 17 0 19 15 5 28 -12 11 -14 9 -14 -8z"/>
<path d="M2730 7390 c-3 -23 -10 -34 -19 -32 -8 2 -11 -3 -8 -12 3 -8 9 -31
13 -51 11 -60 25 -25 22 56 -2 49 -5 62 -8 39z"/>
<path d="M3531 7357 c-20 -37 -23 -51 -16 -93 l8 -49 14 35 c8 19 26 50 39 68
21 27 23 33 10 38 -9 3 -16 15 -16 25 0 31 -14 22 -39 -24z m39 -28 c0 -5 -4
-9 -10 -9 -5 0 -10 7 -10 16 0 8 5 12 10 9 6 -3 10 -10 10 -16z"/>
<path d="M1271 7334 c0 -11 3 -14 6 -6 3 7 2 16 -1 19 -3 4 -6 -2 -5 -13z"/>
<path d="M3511 7194 c0 -11 3 -14 6 -6 3 7 2 16 -1 19 -3 4 -6 -2 -5 -13z"/>
<path d="M1252 7050 c0 -14 2 -19 5 -12 2 6 2 18 0 25 -3 6 -5 1 -5 -13z"/>
<path d="M1266 6990 c3 -14 10 -32 15 -40 7 -12 8 -11 9 6 0 11 -7 29 -16 40
-14 18 -15 18 -8 -6z"/>
<path d="M3528 6965 c-3 -14 -1 -28 3 -31 5 -3 9 9 9 25 0 38 -6 40 -12 6z"/>
<path d="M1350 6814 c0 -5 7 -19 15 -30 8 -10 15 -14 15 -8 0 5 -7 19 -15 30
-8 10 -15 14 -15 8z"/>
<path d="M3582 6746 c-9 -34 -10 -52 -3 -59 17 -17 22 -2 19 54 l-3 54 -13
-49z"/>
<path d="M3630 6709 c0 -24 23 -21 28 4 2 10 -3 17 -12 17 -10 0 -16 -9 -16
-21z"/>
<path d="M3543 6605 c0 -33 2 -45 4 -27 2 18 2 45 0 60 -2 15 -4 0 -4 -33z"/>
<path d="M3640 6635 c-8 -9 -8 -15 -2 -15 12 0 26 19 19 26 -2 2 -10 -2 -17
-11z"/>
<path d="M3689 6608 c-7 -40 2 -168 12 -168 5 0 9 43 9 95 0 52 -4 95 -9 95
-5 0 -10 -10 -12 -22z"/>
<path d="M3590 6599 c0 -5 5 -7 10 -4 6 3 10 8 10 11 0 2 -4 4 -10 4 -5 0 -10
-5 -10 -11z"/>
<path d="M4598 6603 c7 -3 16 -2 19 1 4 3 -2 6 -13 5 -11 0 -14 -3 -6 -6z"/>
<path d="M3545 6468 c-4 -10 -4 -26 0 -35 8 -17 8 -17 12 0 3 9 3 25 0 35 -4
16 -4 16 -12 0z"/>
<path d="M8800 6462 c0 -7 25 -10 75 -8 42 2 78 0 80 -4 7 -11 -33 -20 -95
-20 -31 0 -61 -5 -68 -12 -8 -8 -15 -9 -22 -2 -6 6 -39 7 -87 2 -43 -4 -91 -5
-108 -1 -16 3 -214 6 -439 5 -357 0 -411 -2 -424 -16 -30 -30 -24 -31 166 -23
83 4 112 2 109 -6 -2 -7 -13 -17 -26 -23 -18 -9 -19 -13 -8 -23 11 -8 28 -8
73 3 54 13 56 14 22 15 -39 1 -51 17 -20 27 9 3 25 10 35 15 10 5 23 6 30 2 6
-4 18 -8 27 -9 8 -2 22 -4 30 -6 8 -1 45 1 83 6 48 6 71 5 82 -4 8 -6 19 -9
25 -5 5 3 31 8 55 11 42 3 45 2 35 -15 -15 -29 -13 -31 23 -30 25 0 28 2 12 8
-16 7 -12 11 26 25 38 15 69 17 179 13 89 -3 135 -9 140 -17 6 -9 13 -9 29 -1
14 8 21 8 21 1 0 -5 10 -10 23 -10 41 0 68 -12 58 -24 -12 -15 228 0 246 16 7
6 13 17 13 26 0 8 7 23 15 33 14 15 14 18 0 33 -13 12 -37 16 -103 16 -48 0
-138 3 -199 7 -80 4 -113 3 -113 -5z m244 -101 c7 -11 -17 -21 -50 -21 -23 0
-31 10 -17 23 10 10 61 8 67 -2z"/>
<path d="M7265 6421 c-33 -3 -66 -10 -72 -14 -18 -12 -16 -37 3 -37 22 0 7
-19 -24 -31 -18 -7 -27 -6 -32 1 -5 9 -20 7 -51 -4 -43 -16 -42 -16 96 -13 77
3 151 10 165 16 22 10 19 11 -20 6 -83 -11 -114 -5 -92 17 6 6 39 11 74 10 35
0 91 4 125 10 46 7 75 7 112 -2 59 -14 135 -5 127 15 -2 7 1 18 7 24 12 12
-302 14 -418 2z"/>
<path d="M3628 6413 c-9 -2 -19 -11 -22 -19 -9 -23 41 -18 54 6 11 21 6 23
-32 13z"/>
<path d="M6728 6411 c-58 -5 -75 -9 -70 -18 11 -17 138 -12 172 6 17 10 25 11
28 2 5 -16 22 -14 22 4 0 16 -7 16 -152 6z"/>
<path d="M6938 6408 c-35 -12 -35 -25 -2 -40 21 -10 31 -9 60 7 29 15 39 17
55 7 10 -7 36 -12 56 -12 28 0 34 3 23 10 -12 8 -11 10 6 10 12 0 24 6 27 14
4 11 -14 14 -96 14 -56 0 -114 -4 -129 -10z"/>
<path d="M2337 6389 c8 -8 16 -8 30 0 16 9 14 10 -11 11 -22 0 -27 -3 -19 -11z"/>
<path d="M5380 6390 c-25 -3 -50 -9 -57 -13 -6 -4 -14 -3 -17 2 -11 17 -100 0
-124 -25 -23 -24 -56 -32 -66 -15 -7 10 17 21 45 21 10 0 19 5 19 10 0 11 -65
13 -133 4 -53 -8 -54 -24 -1 -24 19 0 34 -4 34 -9 0 -13 -26 -32 -33 -25 -3 4
-25 10 -47 14 -31 6 -43 4 -47 -6 -8 -22 -60 -18 -66 6 -4 16 2 21 37 29 40 9
40 9 8 10 -18 1 -43 -4 -54 -10 -15 -8 -22 -8 -28 1 -6 10 -40 11 -141 6 -74
-4 -144 -10 -157 -13 -21 -5 -21 -6 -6 -18 16 -11 16 -13 -7 -27 -28 -18 -159
-33 -159 -19 0 5 21 13 48 16 64 9 69 11 74 32 4 16 -2 18 -46 18 -44 0 -51
-3 -51 -20 0 -25 -31 -32 -54 -11 -13 12 -20 13 -29 4 -17 -17 -15 -28 4 -28
14 0 14 -2 3 -16 -12 -15 13 -16 316 -10 182 4 365 9 408 12 60 5 83 2 101 -9
21 -14 26 -14 45 0 18 12 66 16 249 19 125 2 255 7 290 10 62 6 62 6 40 24
l-23 18 28 11 c16 6 51 11 78 11 27 0 49 4 49 9 0 18 -19 21 -65 11 -35 -8
-51 -7 -61 1 -10 8 -38 8 -106 1 -51 -6 -111 -9 -133 -7 -91 10 -122 11 -165
5z m170 -36 c0 -11 6 -15 20 -11 23 6 27 -8 5 -17 -19 -7 -194 -10 -201 -3 -4
3 11 9 32 13 22 4 53 13 69 20 42 19 75 18 75 -2z m-127 -1 c-7 -2 -21 -2 -30
0 -10 3 -4 5 12 5 17 0 24 -2 18 -5z m-673 -13 c0 -5 -8 -10 -17 -10 -15 0
-16 2 -3 10 19 12 20 12 20 0z m597 -16 c-3 -3 -12 -4 -19 -1 -8 3 -5 6 6 6
11 1 17 -2 13 -5z m326 -1 c-13 -2 -33 -2 -45 0 -13 2 -3 4 22 4 25 0 35 -2
23 -4z m-470 -10 c-7 -2 -19 -2 -25 0 -7 3 -2 5 12 5 14 0 19 -2 13 -5z"/>
<path d="M5953 6382 c8 -10 27 -12 67 -8 30 3 61 5 68 6 6 0 12 5 12 11 0 7
-28 9 -79 7 -65 -2 -77 -5 -68 -16z"/>
<path d="M2628 6383 c6 -2 18 -2 25 0 6 3 1 5 -13 5 -14 0 -19 -2 -12 -5z"/>
<path d="M2948 6383 c7 -3 16 -2 19 1 4 3 -2 6 -13 5 -11 0 -14 -3 -6 -6z"/>
<path d="M3193 6373 c9 -2 23 -2 30 0 6 3 -1 5 -18 5 -16 0 -22 -2 -12 -5z"/>
<path d="M7473 6344 c-40 -17 -43 -25 -5 -15 15 5 52 6 83 3 36 -3 59 0 63 7
5 7 -7 11 -38 11 -24 0 -50 2 -58 4 -7 2 -28 -2 -45 -10z"/>
<path d="M4177 6332 c-25 -27 -21 -37 8 -18 13 9 32 15 42 14 35 -3 54 2 48
12 -11 17 -80 12 -98 -8z"/>
<path d="M6768 6343 c7 -3 16 -2 19 1 4 3 -2 6 -13 5 -11 0 -14 -3 -6 -6z"/>
<path d="M7638 6343 c7 -3 16 -2 19 1 4 3 -2 6 -13 5 -11 0 -14 -3 -6 -6z"/>
<path d="M7757 6337 c-15 -10 -3 -12 65 -9 46 2 87 8 93 13 15 14 -139 11
-158 -4z"/>
<path d="M8196 6341 c-7 -11 14 -20 32 -14 6 3 12 9 12 14 0 12 -37 12 -44 0z"/>
<path d="M8285 6340 c-3 -6 1 -7 9 -4 18 7 21 14 7 14 -6 0 -13 -4 -16 -10z"/>
<path d="M8795 6340 c-14 -6 -5 -9 35 -9 39 -1 51 2 40 9 -18 12 -48 12 -75 0z"/>
<path d="M6920 6330 c-13 -8 -12 -10 3 -10 9 0 17 5 17 10 0 12 -1 12 -20 0z"/>
<path d="M5838 6323 c-41 -6 -34 -20 7 -15 19 2 35 8 35 13 0 5 -3 8 -7 8 -5
-1 -20 -4 -35 -6z"/>
<path d="M5935 6321 c-12 -5 13 -8 65 -8 73 0 79 1 40 8 -57 10 -80 10 -105 0z"/>
<path d="M4203 6273 c9 -2 23 -2 30 0 6 3 -1 5 -18 5 -16 0 -22 -2 -12 -5z"/>
<path d="M4998 6263 c7 -3 16 -2 19 1 4 3 -2 6 -13 5 -11 0 -14 -3 -6 -6z"/>
<path d="M8325 6165 c-27 -13 -62 -27 -77 -30 -22 -4 -28 -11 -28 -33 0 -21
-26 -53 -121 -147 -66 -66 -154 -155 -196 -197 -99 -102 -202 -192 -210 -184
-3 3 2 15 12 26 32 35 0 22 -35 -15 -19 -20 -40 -33 -48 -30 -7 2 -21 -1 -32
-7 -15 -10 -25 -9 -46 2 -39 21 -124 99 -124 114 0 15 -73 76 -92 76 -7 1 -69
53 -138 117 -214 198 -271 233 -304 188 -8 -11 -18 -15 -26 -10 -10 6 -9 9 1
16 19 11 2 25 -39 33 -28 5 -35 2 -39 -13 -4 -17 -7 -18 -31 -5 -47 24 -102
11 -102 -25 0 -11 -6 -21 -14 -24 -7 -3 -16 -20 -20 -38 -6 -31 -2 -38 56 -96
67 -67 83 -76 73 -40 -5 17 2 13 30 -18 20 -22 42 -52 49 -68 14 -31 72 -77
97 -77 18 0 33 -16 34 -36 0 -6 32 -39 70 -72 39 -34 81 -72 93 -84 13 -13 29
-22 36 -21 6 2 16 -7 21 -20 6 -13 18 -21 30 -20 10 1 45 -21 77 -49 59 -51
76 -78 36 -57 -17 9 -13 1 15 -29 20 -23 37 -46 37 -50 0 -15 -76 -82 -85 -75
-4 5 -6 3 -2 -2 5 -10 -59 -83 -114 -131 -36 -31 -219 -248 -251 -296 -44 -70
-66 -95 -88 -101 -17 -4 -20 -2 -15 14 4 10 2 19 -4 19 -18 0 -131 -112 -131
-129 0 -9 -4 -21 -9 -26 -5 -6 -11 -30 -13 -55 l-3 -45 65 3 c36 2 67 8 68 13
2 5 15 9 28 9 14 0 37 12 52 27 15 15 32 27 38 25 5 -1 46 34 90 78 97 99 117
104 87 23 -10 -26 6 -12 26 23 12 19 19 40 16 45 -4 5 14 34 40 65 79 97 351
374 368 374 8 0 17 5 19 11 6 18 69 -26 118 -82 25 -28 83 -92 129 -143 46
-50 113 -129 149 -176 36 -47 81 -103 99 -124 18 -22 33 -44 33 -48 0 -15 54
-78 67 -78 15 0 48 48 40 57 -3 3 3 23 13 44 11 21 20 45 20 53 0 7 6 16 14
19 8 3 20 24 27 47 12 38 14 40 42 34 l30 -6 -6 41 c-3 27 -18 57 -41 85 -64
78 -345 370 -405 421 -87 74 -91 85 -53 139 21 29 32 56 32 79 0 47 26 94 61
112 34 18 38 35 8 35 -25 0 -21 21 7 35 11 6 18 18 16 28 -2 10 3 17 11 17 8
0 20 14 26 30 5 17 17 30 26 30 9 0 15 -3 13 -7 -3 -5 -10 -22 -17 -40 -7 -17
-23 -39 -37 -48 -20 -13 -22 -18 -12 -29 13 -14 38 -4 38 15 0 5 17 24 38 43
25 24 44 33 57 30 14 -3 29 4 45 21 18 19 20 24 7 19 -9 -3 -17 -2 -17 4 0 17
84 102 101 102 9 0 26 11 39 25 13 14 29 25 37 25 7 0 13 7 13 15 0 8 8 15 18
15 25 0 92 48 92 67 0 8 9 31 21 49 20 33 20 34 1 34 -10 0 -27 -9 -37 -20
-10 -11 -24 -20 -32 -20 -17 0 -17 27 1 37 8 4 18 21 22 37 l7 30 -36 -23
c-42 -26 -46 -21 -16 20 11 16 19 29 17 28 -2 0 -25 -11 -53 -24z m33 -113 c6
-18 -15 -14 -22 4 -4 10 -1 14 6 12 6 -2 14 -10 16 -16z m-28 -31 c0 -6 -4
-13 -10 -16 -5 -3 -10 1 -10 9 0 9 5 16 10 16 6 0 10 -4 10 -9z m-246 -126
c-4 -8 -11 -15 -16 -15 -6 0 -5 6 2 15 7 8 14 15 16 15 2 0 1 -7 -2 -15z m-64
-60 c-7 -9 -15 -13 -17 -11 -7 7 7 26 19 26 6 0 6 -6 -2 -15z m-45 -45 c-3 -5
-11 -10 -16 -10 -6 0 -7 5 -4 10 3 6 11 10 16 10 6 0 7 -4 4 -10z m-665 -331
c0 -6 -4 -7 -10 -4 -5 3 -10 11 -10 16 0 6 5 7 10 4 6 -3 10 -11 10 -16z
m-100 -19 c0 -5 -4 -10 -10 -10 -5 0 -10 5 -10 10 0 6 5 10 10 10 6 0 10 -4
10 -10z m195 -68 c-7 -7 -55 39 -55 52 0 5 13 -3 30 -19 16 -16 28 -31 25 -33z
m0 -43 c11 -17 -1 -21 -15 -4 -8 9 -8 15 -2 15 6 0 14 -5 17 -11z m-11 -55 c5
-14 4 -15 -9 -4 -17 14 -19 20 -6 20 5 0 12 -7 15 -16z m397 -221 c168 -172
258 -283 230 -283 -10 0 -163 164 -170 182 -4 13 -100 106 -104 102 -2 -2 -30
23 -62 56 -55 55 -57 60 -34 60 19 0 53 -29 140 -117z m-172 73 c20 -23 -6
-29 -29 -6 -26 26 -27 44 -2 31 10 -5 24 -17 31 -25z m176 -167 c11 -17 -1
-21 -15 -4 -8 9 -8 15 -2 15 6 0 14 -5 17 -11z m74 -84 c26 -30 39 -55 28 -55
-2 0 -23 20 -47 45 -29 30 -39 45 -28 45 9 0 30 -16 47 -35z"/>
<path d="M3725 6170 c-3 -5 -9 -33 -12 -62 -4 -38 -2 -50 5 -43 6 6 13 34 16
63 5 52 3 61 -9 42z"/>
<path d="M3560 6144 c0 -8 5 -12 10 -9 6 4 8 11 5 16 -9 14 -15 11 -15 -7z"/>
<path d="M4225 6136 l30 -25 -27 -1 c-18 0 -31 7 -38 20 -10 18 -19 20 -66 18
-38 -2 -53 -7 -49 -15 2 -7 -3 -17 -12 -22 -9 -5 -18 -25 -20 -48 -3 -34 1
-43 39 -82 51 -52 186 -154 233 -177 19 -9 39 -22 46 -30 6 -8 17 -14 23 -14
6 0 27 -11 46 -23 19 -13 47 -27 63 -31 15 -3 27 -11 27 -16 0 -5 17 -19 38
-30 20 -11 57 -34 82 -50 25 -16 67 -43 93 -59 27 -16 85 -58 130 -94 45 -37
140 -112 210 -168 71 -56 131 -108 134 -115 7 -20 -25 -74 -53 -86 -13 -6 -27
-22 -30 -35 -4 -13 -12 -23 -19 -23 -7 0 -49 -41 -92 -92 -43 -51 -99 -115
-124 -143 -25 -27 -71 -81 -103 -120 -93 -111 -150 -169 -154 -157 -4 14 -22
-7 -141 -171 -71 -97 -96 -139 -102 -174 -11 -57 -4 -63 71 -63 74 0 102 16
113 63 9 36 11 38 39 32 27 -6 29 -5 23 14 -5 16 -1 23 19 31 15 5 32 24 41
45 15 38 132 172 145 168 5 -1 25 19 46 45 21 26 44 50 50 55 7 4 15 21 19 37
4 17 11 30 16 30 5 0 9 7 9 15 0 9 7 18 15 21 8 4 12 11 9 16 -4 5 8 24 25 42
17 17 43 56 58 86 19 37 33 54 44 52 9 -1 24 9 33 23 9 14 21 23 25 20 5 -2
12 7 15 20 4 14 18 31 31 37 14 6 25 16 26 22 0 6 16 24 36 40 l35 29 91 -96
c184 -193 371 -422 363 -444 -4 -10 63 -63 81 -63 5 0 28 -14 53 -30 25 -16
55 -30 67 -30 19 0 23 7 29 50 4 28 8 50 10 50 3 0 13 -5 24 -12 25 -16 37 -4
19 18 -13 16 -12 16 8 6 32 -18 38 -15 18 8 -21 23 -22 21 28 44 30 14 41 15
53 5 8 -6 17 -9 20 -6 6 6 -50 79 -195 252 -42 50 -153 169 -248 266 -95 97
-173 179 -173 183 0 3 9 23 20 43 11 21 20 44 20 51 0 17 41 68 54 67 5 0 13
13 17 29 10 36 47 76 71 76 12 0 18 7 18 24 0 16 18 38 59 72 58 48 81 79 81
111 0 13 -5 12 -26 -8 -22 -21 -24 -21 -18 -4 8 24 44 65 56 65 5 0 6 -9 3
-20 -9 -29 11 -25 41 8 14 15 40 34 57 42 17 8 41 29 52 47 11 18 25 32 31 33
14 0 49 38 42 45 -3 3 -17 1 -32 -4 -29 -12 -33 -3 -15 31 8 15 8 22 -1 28 -7
4 -10 17 -7 29 4 18 2 20 -19 15 -13 -3 -24 -2 -24 3 0 5 -11 10 -24 11 -29 2
-78 -62 -74 -98 2 -18 -10 -33 -51 -64 -29 -23 -60 -55 -69 -71 -8 -17 -17
-25 -19 -17 -7 20 -33 14 -33 -8 0 -11 -6 -20 -13 -20 -17 0 -115 -87 -122
-108 -3 -10 -21 -25 -40 -32 -19 -8 -35 -19 -35 -25 0 -13 -70 -95 -81 -95 -5
0 -6 8 -2 18 7 20 -29 -10 -85 -70 -19 -21 -37 -38 -41 -38 -3 0 -41 29 -84
65 -178 149 -390 296 -537 374 -25 13 -102 61 -171 107 -69 46 -132 84 -139
84 -7 0 -51 22 -99 49 -47 28 -99 53 -116 56 l-30 7 30 -26z m115 -256 c0 -5
-4 -10 -9 -10 -6 0 -13 5 -16 10 -3 6 1 10 9 10 9 0 16 -4 16 -10z m1723 -17
c-3 -8 -12 -12 -20 -9 -8 3 -21 -1 -30 -10 -21 -20 -30 -9 -10 13 20 23 68 27
60 6z m-1598 -53 c159 -101 209 -139 184 -140 -9 0 -38 17 -63 38 -25 21 -81
57 -125 80 -81 43 -117 72 -89 72 7 0 50 -23 93 -50z m1505 46 c0 -3 -4 -8
-10 -11 -5 -3 -10 -1 -10 4 0 6 5 11 10 11 6 0 10 -2 10 -4z m-1665 -16 c3 -5
2 -10 -4 -10 -5 0 -13 5 -16 10 -3 6 -2 10 4 10 5 0 13 -4 16 -10z m1675 -35
c0 -8 -7 -15 -16 -15 -14 0 -14 3 -4 15 7 8 14 15 16 15 2 0 4 -7 4 -15z
m-113 -50 c-4 -8 -11 -15 -17 -15 -6 0 -6 7 2 20 14 22 24 19 15 -5z m-37 -40
c0 -9 -44 -45 -54 -45 -6 0 2 12 17 25 28 24 37 30 37 20z m-930 -225 c0 -5
-2 -10 -4 -10 -3 0 -8 5 -11 10 -3 6 -1 10 4 10 6 0 11 -4 11 -10z m212 -84
c39 -39 76 -71 82 -72 6 0 17 -2 24 -2 6 -1 12 -13 12 -26 0 -13 7 -29 15 -36
16 -14 20 -40 6 -40 -13 0 -29 22 -36 53 -4 15 -14 27 -22 27 -10 0 -12 -6 -8
-21 6 -18 4 -19 -13 -10 -11 6 -35 30 -54 53 -18 24 -40 50 -48 58 -8 9 -24
28 -34 42 -12 16 -27 25 -41 24 -15 -2 -21 3 -23 20 -3 41 61 9 140 -70z
m-187 64 c3 -5 1 -10 -4 -10 -6 0 -11 5 -11 10 0 6 2 10 4 10 3 0 8 -4 11 -10z
m513 -368 c2 -12 12 -27 23 -32 10 -6 19 -17 19 -24 0 -7 11 -23 25 -36 14
-13 25 -31 25 -40 0 -9 19 -29 41 -46 63 -44 96 -77 103 -101 4 -12 13 -20 20
-17 7 3 21 -11 32 -33 40 -78 125 -183 162 -201 20 -9 38 -25 40 -35 6 -29
-33 -20 -67 16 -78 80 -90 94 -105 124 -9 17 -36 48 -60 68 -25 20 -46 46 -48
58 -2 13 -10 22 -20 22 -16 0 -68 63 -68 82 0 5 -13 14 -30 20 -24 9 -31 18
-36 53 -4 24 -10 37 -14 30 -6 -9 -10 -8 -16 3 -5 8 -20 17 -34 19 -20 2 -25
9 -25 30 0 14 -3 29 -7 33 -4 4 -4 13 -1 21 8 22 38 12 41 -14z m-348 -191 c0
-5 -6 -14 -14 -20 -12 -10 -13 -8 -9 8 5 21 23 30 23 12z m36 -7 c-3 -9 -6
-18 -6 -20 0 -2 -7 -4 -15 -4 -13 0 -14 4 -5 20 13 24 35 27 26 4z"/>
<path d="M2125 6110 c-10 -11 -30 -20 -44 -20 -59 0 -103 -13 -110 -32 -7 -19
-62 -46 -224 -113 -101 -41 -228 -163 -212 -203 6 -15 8 -15 23 4 18 22 96 74
110 74 5 0 21 10 36 21 42 33 43 14 2 -31 -20 -22 -36 -45 -36 -52 0 -9 -3 -9
-12 0 -18 18 -25 15 -32 -11 -3 -13 -17 -30 -32 -37 -26 -15 -60 -66 -56 -86
1 -6 -5 -24 -13 -40 -8 -16 -15 -35 -15 -43 0 -8 -6 -22 -14 -30 -21 -24 -56
-129 -62 -191 -3 -30 -14 -79 -25 -107 -10 -29 -22 -96 -25 -148 -4 -53 -11
-98 -15 -101 -13 -8 -11 225 2 266 18 62 49 175 49 184 0 22 -30 -20 -36 -49
-4 -24 -13 -35 -29 -39 -24 -6 -28 -24 -42 -186 -10 -113 -2 -265 14 -296 7
-11 9 -38 6 -61 -5 -35 -3 -41 16 -46 17 -4 21 -11 16 -29 -7 -26 58 -154 101
-199 13 -14 24 -32 24 -40 0 -9 10 -21 23 -28 53 -28 71 -41 103 -72 19 -18
34 -41 34 -50 0 -19 30 -35 39 -21 8 11 151 -54 151 -68 0 -6 -4 -8 -10 -5 -5
3 -10 2 -10 -3 0 -5 11 -12 25 -14 21 -4 24 -2 20 12 -5 17 -3 17 40 5 24 -8
73 -17 107 -21 35 -4 70 -10 78 -15 24 -13 -46 -11 -117 5 -35 7 -63 9 -63 4
0 -8 9 -10 85 -24 101 -18 318 4 410 42 39 16 75 34 80 41 6 6 39 23 74 37 88
35 108 50 116 86 4 17 27 49 55 76 27 25 60 70 74 100 29 61 34 107 12 98 -20
-8 -25 17 -15 71 9 50 23 74 36 62 4 -4 1 -13 -5 -19 -7 -7 -12 -19 -12 -28 1
-33 40 61 52 126 17 93 15 161 -6 279 -10 55 -19 138 -21 185 -2 47 -8 99 -14
115 -9 24 -10 10 -6 -70 5 -93 -3 -140 -21 -122 -4 3 -9 29 -12 57 -2 27 -8
50 -13 50 -5 0 -9 7 -9 15 0 8 -5 15 -10 15 -10 0 -9 -13 12 -93 9 -38 3 -97
-10 -97 -4 0 -7 27 -8 60 -1 34 -8 69 -16 82 -11 17 -13 32 -5 66 6 30 6 52
-2 69 -6 13 -11 40 -11 59 0 19 -4 33 -9 29 -5 -3 -19 8 -30 24 -23 31 -27 46
-11 36 18 -11 10 9 -20 54 -17 24 -30 37 -30 28 0 -9 -5 -19 -12 -23 -8 -5 -9
3 -5 29 5 35 -6 60 -16 35 -3 -7 -6 2 -6 20 -1 40 -25 88 -50 101 -10 6 -21
23 -24 38 -3 16 -16 40 -29 54 -13 13 -23 31 -22 39 1 26 -16 50 -49 70 -47
29 -68 24 -24 -5 20 -14 37 -33 36 -43 0 -11 -2 -12 -6 -4 -7 19 -121 68 -174
76 -26 4 -55 13 -65 21 -25 19 -28 19 -49 -5z m255 -227 c17 -3 40 -26 73 -73
50 -73 56 -85 32 -76 -8 3 -15 2 -15 -1 0 -4 25 -58 55 -120 59 -121 73 -167
83 -278 11 -132 1 -328 -22 -404 -8 -27 -17 -75 -21 -107 -10 -95 -26 -155
-57 -219 -32 -65 -44 -77 -128 -133 l-55 -37 -151 0 -151 0 -75 38 c-134 68
-173 116 -229 282 -52 157 -12 480 83 670 59 116 71 130 263 291 17 14 47 34
67 45 42 21 57 39 33 39 -31 0 -2 23 79 61 44 21 88 36 96 32 8 -3 26 -8 40
-10z m70 -9 c0 -8 -4 -12 -10 -9 -5 3 -10 10 -10 16 0 5 5 9 10 9 6 0 10 -7
10 -16z m84 -54 c7 -8 19 -26 26 -39 10 -19 10 -22 -2 -15 -44 26 -76 58 -80
79 -7 35 4 40 24 13 10 -13 24 -30 32 -38z m119 -221 c9 -17 17 -35 17 -40 0
-13 -37 11 -37 25 0 6 -4 19 -8 29 -12 29 9 19 28 -14z m27 -80 c0 -11 -4 -17
-10 -14 -5 3 -10 13 -10 21 0 8 5 14 10 14 6 0 10 -9 10 -21z m-1056 -23 c-6
-16 -24 -23 -24 -8 0 10 22 33 27 28 2 -2 1 -11 -3 -20z m34 -213 c-11 -43
-24 -81 -27 -86 -11 -11 5 94 19 131 23 61 28 32 8 -45z m-141 -45 c-3 -58 -9
-94 -16 -96 -7 -2 -8 -8 -3 -15 5 -7 12 -51 16 -100 3 -48 15 -143 26 -212 17
-101 27 -136 55 -185 19 -34 35 -71 35 -81 0 -19 -1 -19 -24 -2 -14 10 -20 21
-14 24 17 11 -1 29 -27 29 -55 0 -109 147 -140 378 -8 60 8 144 36 184 11 14
19 35 19 45 0 24 29 123 36 123 3 0 3 -41 1 -92z m1308 -58 c-5 -8 -11 -8 -17
-2 -6 6 -7 16 -3 22 5 8 11 8 17 2 6 -6 7 -16 3 -22z m-42 -77 c-9 -22 -23 -3
-23 30 l1 32 13 -24 c8 -14 12 -31 9 -38z m-1170 7 c-3 -11 -7 -20 -9 -20 -2
0 -4 9 -4 20 0 11 4 20 9 20 5 0 7 -9 4 -20z m-13 -111 c0 -5 -4 -9 -10 -9 -5
0 -10 7 -10 16 0 8 5 12 10 9 6 -3 10 -10 10 -16z m1170 -103 c0 -14 -4 -28
-10 -31 -6 -4 -10 7 -10 24 0 17 5 31 10 31 6 0 10 -11 10 -24z m-1163 -48
c-3 -8 -6 -5 -6 6 -1 11 2 17 5 13 3 -3 4 -12 1 -19z m1120 -355 c-3 -10 -5
-4 -5 12 0 17 2 24 5 18 2 -7 2 -21 0 -30z m-1057 -23 c14 -11 20 -20 14 -20
-7 0 -22 9 -35 20 -31 25 -12 26 21 0z"/>
<path d="M1464 4914 c-9 -36 37 -187 52 -171 2 1 -3 21 -11 42 -8 22 -14 66
-15 98 0 59 -15 76 -26 31z"/>
<path d="M6137 6063 c-10 -9 -9 -23 2 -23 5 0 11 7 15 15 5 15 -5 20 -17 8z"/>
<path d="M3560 6013 c0 -28 3 -34 10 -23 13 20 13 60 0 60 -5 0 -10 -17 -10
-37z"/>
<path d="M3707 6043 c-13 -12 -7 -43 8 -43 9 0 15 9 15 25 0 24 -10 32 -23 18z"/>
<path d="M3667 5990 c-3 -11 -1 -23 4 -26 5 -3 9 6 9 20 0 31 -6 34 -13 6z"/>
<path d="M3705 5959 c-4 -6 -5 -12 -2 -15 2 -3 7 2 10 11 7 17 1 20 -8 4z"/>
<path d="M3701 5903 c-11 -24 -10 -29 6 -41 17 -12 17 -15 -10 -63 -20 -36
-25 -54 -18 -67 8 -14 10 -13 17 11 5 22 11 27 27 23 18 -4 19 -1 14 41 -3 25
-1 59 4 76 6 22 5 33 -4 39 -19 12 -23 10 -36 -19z"/>
<path d="M3712 5731 c-8 -4 -5 -11 8 -19 16 -10 20 -10 20 2 0 19 -13 27 -28
17z"/>
<path d="M3575 5639 c3 -39 10 -78 16 -87 8 -13 9 -8 5 23 -3 22 -6 61 -6 88
0 26 -5 47 -10 47 -7 0 -9 -26 -5 -71z"/>
<path d="M6218 5661 c-11 -47 -10 -279 1 -285 14 -9 16 30 11 179 -3 96 -7
129 -12 106z"/>
<path d="M3692 5620 c0 -14 2 -19 5 -12 2 6 2 18 0 25 -3 6 -5 1 -5 -13z"/>
<path d="M3715 5618 c-9 -22 4 -43 17 -30 7 7 7 16 0 29 -10 17 -11 17 -17 1z"/>
<path d="M1500 5595 c-7 -9 -10 -18 -7 -21 3 -3 10 4 17 15 13 25 8 27 -10 6z"/>
<path d="M3726 5492 c-14 -23 -2 -147 15 -157 14 -9 23 67 11 97 -5 15 -8 37
-5 48 5 19 -11 28 -21 12z"/>
<path d="M3691 5424 c0 -11 3 -14 6 -6 3 7 2 16 -1 19 -3 4 -6 -2 -5 -13z"/>
<path d="M3641 5313 c0 -27 4 -66 8 -88 7 -34 9 -26 10 48 1 52 -3 87 -9 87
-5 0 -10 -21 -9 -47z"/>
<path d="M3596 5295 c-3 -8 -1 -15 4 -15 6 0 10 7 10 15 0 8 -2 15 -4 15 -2 0
-6 -7 -10 -15z"/>
<path d="M6221 5238 c2 -117 17 -138 18 -25 1 58 -3 97 -9 97 -6 0 -10 -30 -9
-72z"/>
<path d="M3741 5274 c0 -11 3 -14 6 -6 3 7 2 16 -1 19 -3 4 -6 -2 -5 -13z"/>
<path d="M3729 5188 c-7 -17 -6 -178 1 -178 6 0 10 39 10 90 0 50 -2 90 -5 90
-3 0 -5 -1 -6 -2z"/>
<path d="M3652 5090 c0 -14 2 -19 5 -12 2 6 2 18 0 25 -3 6 -5 1 -5 -13z"/>
<path d="M6230 4978 c0 -29 5 -60 10 -68 7 -11 10 3 10 47 0 34 -4 65 -10 68
-6 4 -10 -14 -10 -47z"/>
<path d="M7720 4923 c13 -18 26 -30 29 -28 3 3 -8 18 -23 33 l-29 27 23 -32z"/>
<path d="M3596 4908 c-8 -32 -7 -88 2 -88 4 0 8 25 9 55 1 59 -1 68 -11 33z"/>
<path d="M3735 4888 c-7 -28 1 -68 14 -68 4 0 5 17 3 38 -5 54 -9 60 -17 30z"/>
<path d="M2882 4840 c0 -14 2 -19 5 -12 2 6 2 18 0 25 -3 6 -5 1 -5 -13z"/>
<path d="M6252 4820 c0 -14 2 -19 5 -12 2 6 2 18 0 25 -3 6 -5 1 -5 -13z"/>
<path d="M3652 4800 c0 -14 2 -19 5 -12 2 6 2 18 0 25 -3 6 -5 1 -5 -13z"/>
<path d="M7825 4810 c3 -5 11 -10 16 -10 6 0 7 5 4 10 -3 6 -11 10 -16 10 -6
0 -7 -4 -4 -10z"/>
<path d="M3757 4653 c-9 -8 -7 -140 3 -178 5 -20 8 6 9 78 1 107 0 113 -12
100z"/>
<path d="M6251 4624 c0 -11 3 -14 6 -6 3 7 2 16 -1 19 -3 4 -6 -2 -5 -13z"/>
<path d="M6263 4525 c0 -22 2 -30 4 -17 2 12 2 30 0 40 -3 9 -5 -1 -4 -23z"/>
<path d="M1450 4486 c0 -2 8 -10 18 -17 15 -13 16 -12 3 4 -13 16 -21 21 -21
13z"/>
<path d="M1536 4401 c-3 -5 1 -14 9 -21 12 -10 15 -10 15 3 0 19 -16 31 -24
18z"/>
<path d="M3622 4230 c0 -19 2 -27 5 -17 2 9 2 25 0 35 -3 9 -5 1 -5 -18z"/>
<path d="M2870 4086 c0 -2 7 -6 15 -10 8 -3 15 -1 15 4 0 6 -7 10 -15 10 -8 0
-15 -2 -15 -4z"/>
<path d="M3145 4080 c-8 -13 5 -13 25 0 13 8 13 10 -2 10 -9 0 -20 -4 -23 -10z"/>
<path d="M7318 4073 c7 -3 16 -2 19 1 4 3 -2 6 -13 5 -11 0 -14 -3 -6 -6z"/>
<path d="M8876 4071 c-4 -6 -19 -11 -32 -11 -16 0 -24 -5 -21 -12 2 -8 17 -12
35 -10 16 2 33 -2 37 -7 3 -6 1 -11 -4 -11 -6 0 -11 -4 -11 -9 0 -14 33 -7 62
12 17 12 35 16 48 12 20 -6 21 -5 10 15 -10 19 -18 22 -55 17 -24 -2 -48 0
-53 5 -6 6 -12 6 -16 -1z"/>
<path d="M9099 4069 c14 -5 31 -7 39 -4 8 3 12 0 10 -7 -3 -8 -26 -14 -57 -16
-29 -2 -49 -7 -46 -13 4 -5 -13 -9 -39 -9 -27 0 -48 -5 -53 -13 -4 -8 -16 -17
-27 -20 -14 -6 -17 -13 -11 -35 9 -38 10 -38 46 -8 22 19 35 24 42 17 18 -18
40 -13 33 6 -7 17 9 33 34 33 13 0 13 -2 1 -9 -8 -5 -15 -19 -16 -30 -2 -19 2
-21 34 -15 20 4 42 11 49 17 17 14 16 -7 -2 -22 -8 -7 -24 -13 -35 -14 -42 -3
-19 -14 40 -21 109 -11 137 -8 144 14 8 26 25 26 25 0 0 -18 5 -19 63 -14 114
9 147 15 142 25 -4 5 1 9 9 9 8 0 18 -4 21 -10 3 -5 21 -9 38 -9 24 1 26 3 9
6 -29 6 -19 23 14 23 25 0 32 14 14 25 -8 5 -8 11 -1 19 17 20 -36 44 -134 61
-109 19 -174 19 -199 0 -28 -22 -63 -19 -69 5 -5 18 -13 20 -74 19 -54 0 -63
-2 -44 -10z m111 -48 c0 -4 -24 -6 -52 -4 -78 7 -82 11 -10 12 34 1 62 -3 62
-8z m343 2 c-7 -2 -19 -2 -25 0 -7 3 -2 5 12 5 14 0 19 -2 13 -5z m-208 -13
c3 -5 1 -10 -4 -10 -6 0 -11 -7 -11 -15 0 -8 -9 -15 -20 -15 -11 0 -20 5 -20
10 0 6 8 10 17 10 30 0 0 18 -37 23 -27 3 -23 4 17 5 28 1 55 -2 58 -8z m-342
-17 c-7 -2 -19 -2 -25 0 -7 3 -2 5 12 5 14 0 19 -2 13 -5z m231 -5 c11 -11 9
-17 -11 -35 -13 -13 -28 -23 -32 -23 -14 0 -21 28 -8 33 7 2 -3 7 -21 11 -18
4 -30 12 -26 17 8 13 83 11 98 -3z m371 -18 c3 -5 1 -10 -4 -10 -6 0 -11 5
-11 10 0 6 2 10 4 10 3 0 8 -4 11 -10z m-664 -27 c-8 -15 -10 -15 -11 -2 0 17
10 32 18 25 2 -3 -1 -13 -7 -23z"/>
<path d="M3590 4060 c0 -5 5 -10 10 -10 6 0 10 5 10 10 0 6 -4 10 -10 10 -5 0
-10 -4 -10 -10z"/>
<path d="M3724 4061 c3 -5 15 -7 26 -4 28 7 25 13 -6 13 -14 0 -23 -4 -20 -9z"/>
<path d="M7963 4053 c9 -2 25 -2 35 0 9 3 1 5 -18 5 -19 0 -27 -2 -17 -5z"/>
<path d="M8139 4035 c-18 -18 -40 -27 -77 -32 -34 -4 -52 -2 -52 5 0 6 6 13
13 15 6 3 -44 5 -113 4 -108 0 -115 -1 -50 -7 63 -5 70 -6 40 -12 -19 -4 -82
-9 -140 -12 -109 -5 -140 -11 -140 -28 0 -6 7 -7 16 -4 40 15 66 17 94 8 20
-7 30 -8 30 -1 0 6 5 7 11 3 28 -17 362 -16 390 1 7 5 14 4 17 -3 5 -17 74
-15 98 3 31 23 54 19 54 -11 0 -20 4 -25 16 -20 58 22 429 42 440 24 3 -5 19
-6 35 -3 26 6 29 4 29 -19 0 -14 5 -26 11 -26 6 0 9 6 6 14 -3 7 1 23 9 35 16
23 19 21 -45 27 -18 1 -43 5 -55 8 -13 3 -36 2 -53 -3 -17 -5 -36 -5 -44 0
-14 9 -8 12 36 22 14 3 12 5 -8 6 -16 0 -37 -4 -47 -9 -10 -6 -63 -14 -117
-19 -54 -5 -108 -13 -120 -16 -16 -5 -23 -3 -23 7 0 10 -10 13 -35 10 -36 -4
-49 12 -17 22 9 3 6 4 -8 1 -14 -2 -35 -7 -48 -10 -18 -6 -21 -4 -16 8 8 21
-25 37 -73 37 -28 0 -45 -7 -64 -25z m101 7 c-8 -4 -15 -14 -15 -22 0 -10 -12
-16 -34 -18 -30 -3 -33 -2 -22 12 7 8 10 20 6 26 -4 6 9 10 37 9 24 0 36 -3
28 -7z"/>
<path d="M5470 4020 c0 -6 -16 -20 -36 -32 l-36 -21 29 -16 c17 -9 28 -22 25
-30 -3 -10 3 -12 24 -7 16 3 55 8 87 12 31 3 60 10 63 15 8 14 24 11 24 -5 0
-19 97 -33 113 -17 9 9 8 14 -3 21 -12 8 -10 10 8 10 12 0 25 -7 28 -15 7 -17
73 -21 102 -6 43 21 86 31 96 21 8 -8 6 -14 -4 -20 -11 -7 -7 -10 16 -10 17 0
37 6 43 14 9 11 8 14 -3 12 -8 0 -15 4 -15 9 0 6 -17 12 -38 15 -24 3 -37 10
-35 18 3 16 -25 46 -30 32 -4 -13 -221 -23 -263 -13 -21 6 2 10 80 14 95 4 84
5 -82 7 -128 1 -193 -2 -193 -8z m105 -10 c3 -5 1 -10 -5 -10 -6 0 -8 -5 -5
-10 4 -6 15 -8 25 -5 10 3 21 1 24 -4 7 -12 -164 -20 -178 -9 -6 5 0 8 13 8
13 0 34 9 48 20 27 21 68 27 78 10z m315 -30 c-8 -5 -35 -10 -60 -10 -33 0
-41 3 -30 10 8 5 35 10 60 10 33 0 41 -3 30 -10z m-193 -6 c-3 -3 -12 -4 -19
-1 -8 3 -5 6 6 6 11 1 17 -2 13 -5z m-147 -24 c0 -5 -5 -10 -11 -10 -5 0 -7 5
-4 10 3 6 8 10 11 10 2 0 4 -4 4 -10z"/>
<path d="M7315 4023 c-28 -6 -85 -33 -85 -39 0 -3 23 -3 50 1 57 8 66 0 18
-14 -26 -7 -28 -9 -10 -10 13 -1 36 -8 51 -16 16 -8 31 -12 34 -9 3 3 33 9 67
14 57 8 91 23 79 34 -2 2 -27 0 -56 -5 -54 -10 -113 -2 -113 16 0 6 15 15 33
22 l32 11 -40 0 c-22 0 -49 -2 -60 -5z"/>
<path d="M7518 4023 c7 -3 16 -2 19 1 4 3 -2 6 -13 5 -11 0 -14 -3 -6 -6z"/>
<path d="M8438 4023 c18 -2 45 -2 60 0 15 2 0 4 -33 4 -33 0 -45 -2 -27 -4z"/>
<path d="M7045 4010 c-3 -5 -20 -14 -38 -19 l-32 -9 28 -1 c26 -1 87 23 87 34
0 9 -39 5 -45 -5z"/>
<path d="M7468 4013 c6 -2 18 -2 25 0 6 3 1 5 -13 5 -14 0 -19 -2 -12 -5z"/>
<path d="M6048 3993 c7 -3 16 -2 19 1 4 3 -2 6 -13 5 -11 0 -14 -3 -6 -6z"/>
<path d="M7190 3970 c-20 -12 -10 -19 14 -10 11 3 15 9 10 13 -6 3 -16 2 -24
-3z"/>
<path d="M7565 3970 c-3 -5 3 -10 14 -10 12 0 21 5 21 10 0 6 -6 10 -14 10 -8
0 -18 -4 -21 -10z"/>
<path d="M6593 3963 c-12 -2 -26 -10 -32 -17 -8 -10 -3 -12 24 -12 26 1 35 5
35 19 0 9 -1 16 -2 16 -2 -1 -13 -4 -25 -6z"/>
<path d="M6647 3963 c-10 -9 -9 -23 2 -23 5 0 11 7 15 15 5 15 -5 20 -17 8z"/>
<path d="M6885 3960 c-19 -8 -19 -9 3 -9 12 -1 22 4 22 9 0 6 -1 10 -2 9 -2 0
-12 -4 -23 -9z"/>
<path d="M7115 3960 c-4 -6 7 -10 27 -10 25 0 29 3 18 10 -19 13 -37 13 -45 0z"/>
<path d="M7038 3948 c9 -9 15 -9 24 0 9 9 7 12 -12 12 -19 0 -21 -3 -12 -12z"/>
<path d="M5113 3923 c9 -2 23 -2 30 0 6 3 -1 5 -18 5 -16 0 -22 -2 -12 -5z"/>
<path d="M6148 3923 c12 -2 30 -2 40 0 9 3 -1 5 -23 4 -22 0 -30 -2 -17 -4z"/>
<path d="M9005 3920 c-4 -6 7 -10 24 -10 17 0 31 5 31 10 0 6 -11 10 -24 10
-14 0 -28 -4 -31 -10z"/>
<path d="M3598 3903 c7 -3 16 -2 19 1 4 3 -2 6 -13 5 -11 0 -14 -3 -6 -6z"/>
<path d="M4728 3883 c6 -2 18 -2 25 0 6 3 1 5 -13 5 -14 0 -19 -2 -12 -5z"/>
<path d="M3701 3764 c0 -11 3 -14 6 -6 3 7 2 16 -1 19 -3 4 -6 -2 -5 -13z"/>
<path d="M3010 3681 c-41 -28 -80 -63 -88 -78 -8 -15 -70 -83 -139 -150 -68
-66 -121 -123 -116 -126 9 -6 187 161 194 182 3 7 15 11 27 9 22 -3 22 -5 -15
-40 -21 -21 -86 -84 -144 -142 -99 -97 -149 -137 -149 -119 0 4 14 22 32 40
17 18 29 35 26 38 -12 12 -82 -48 -185 -159 -69 -74 -115 -116 -128 -116 -12
0 -61 42 -125 106 -115 117 -247 234 -264 234 -5 0 -27 17 -48 37 -32 31 -40
35 -48 23 -8 -12 -12 -11 -31 8 -18 20 -28 23 -62 18 -33 -5 -49 -1 -86 21
-35 21 -42 28 -28 31 11 2 35 -8 55 -22 22 -15 38 -22 41 -15 5 17 -8 25 -83
53 l-68 26 -43 -19 c-51 -23 -80 -61 -71 -95 3 -13 45 -59 93 -103 112 -100
136 -118 100 -75 -33 41 -35 57 -4 40 12 -7 27 -13 32 -13 20 -1 85 -60 96
-87 7 -16 19 -28 30 -28 10 0 26 -11 36 -26 28 -40 93 -109 93 -99 0 5 14 -4
30 -20 17 -16 30 -39 30 -51 0 -13 5 -26 12 -30 8 -5 9 -2 5 10 -4 10 -7 24
-7 32 0 8 -38 57 -85 109 -86 95 -93 105 -75 105 16 0 183 -159 239 -227 31
-38 60 -63 71 -63 11 0 24 -9 30 -19 14 -28 12 -35 -6 -20 -13 11 -15 11 -13
-2 4 -17 -29 -81 -47 -92 -7 -4 -11 -14 -8 -22 3 -8 2 -20 -3 -27 -4 -7 -8
-24 -8 -38 0 -19 -5 -25 -20 -24 -13 1 -34 -15 -58 -45 -58 -71 -107 -140
-107 -151 0 -6 -16 -25 -36 -42 -37 -33 -72 -88 -54 -88 5 0 10 -4 10 -10 0
-5 -6 -7 -14 -4 -16 6 -79 -79 -151 -203 -25 -46 -54 -87 -63 -93 -14 -8 -14
-9 -2 -10 11 0 9 -5 -7 -18 -25 -19 -103 -199 -103 -237 0 -31 11 -31 63 0 43
25 115 102 154 164 14 23 22 30 23 19 0 -38 20 -24 48 34 16 35 50 89 75 120
26 31 47 63 47 70 0 7 8 22 16 33 16 20 16 20 9 -2 -5 -17 -3 -22 8 -17 22 8
49 74 42 103 -4 21 2 36 28 66 18 22 48 62 66 88 20 29 47 55 67 63 21 9 36
23 40 39 3 14 19 34 34 45 16 11 42 40 58 65 l30 46 60 -56 c33 -30 65 -55 71
-55 6 0 11 12 11 26 l0 25 26 -20 c29 -23 56 -29 36 -9 -15 15 -16 32 -2 23
17 -11 11 6 -9 23 -24 22 -37 72 -18 72 15 0 57 -41 54 -53 -1 -4 38 -42 87
-85 79 -69 89 -81 92 -115 4 -45 -15 -46 -29 -2 -20 59 -68 81 -79 37 -7 -28
2 -42 27 -42 23 0 53 -35 41 -47 -3 -4 -1 -12 5 -20 9 -9 8 -13 0 -13 -6 0
-11 -6 -11 -12 0 -16 61 -58 83 -58 11 0 17 -8 17 -23 0 -14 22 -44 60 -82 40
-40 60 -54 60 -42 0 9 4 17 9 17 15 0 26 -22 26 -49 0 -18 7 -27 25 -31 14 -3
29 -15 34 -25 5 -11 23 -27 40 -35 21 -10 31 -22 31 -37 0 -12 15 -37 33 -56
37 -38 39 -47 12 -47 -31 0 -23 -26 15 -50 45 -28 61 -21 76 30 11 37 14 40
25 25 17 -23 34 -10 34 26 0 27 3 29 35 29 26 0 43 7 62 28 25 27 25 27 3 30
-14 3 -20 9 -16 19 6 15 -203 233 -223 233 -6 0 -11 -10 -11 -22 l0 -21 -25
23 c-14 13 -25 35 -25 50 0 30 -89 125 -118 125 -9 0 -18 9 -21 20 -2 11 -11
25 -20 32 -13 10 -18 9 -29 -4 -9 -13 -15 -14 -24 -5 -9 9 -9 15 0 24 9 9 -9
32 -81 100 -187 180 -247 242 -243 252 2 6 8 10 14 9 6 -2 6 8 -1 28 -10 26
-8 37 14 80 26 47 26 62 1 37 -9 -9 -12 -8 -12 8 0 21 313 353 324 343 4 -4
-5 -20 -19 -37 -14 -16 -25 -34 -25 -38 0 -5 -13 -18 -29 -28 -30 -20 -69 -82
-58 -92 3 -4 12 5 18 20 7 14 18 26 25 26 7 0 23 15 35 33 12 17 45 54 73 80
32 30 46 50 39 54 -21 8 -15 31 12 49 30 20 41 14 26 -14 -10 -20 -10 -20 19
-6 29 15 100 90 100 106 0 4 -4 8 -10 8 -6 0 -6 8 -1 23 5 12 18 45 29 72 27
66 32 119 12 122 -8 2 -49 -19 -90 -46z m-3 -233 c-3 -8 -6 -5 -6 6 -1 11 2
17 5 13 3 -3 4 -12 1 -19z m-839 -458 c18 -9 27 -8 38 1 10 8 14 8 14 0 0 -6
-4 -11 -10 -11 -17 0 -11 -22 12 -47 12 -13 18 -26 14 -30 -4 -4 -10 -2 -14 4
-4 6 -21 13 -37 15 -20 2 -31 9 -34 23 -2 11 -45 65 -96 120 -124 135 -130
166 -8 38 54 -56 108 -107 121 -113z m186 -276 c9 -22 8 -24 -9 -24 -8 0 -15
9 -15 20 0 24 15 27 24 4z m-214 -4 c0 -5 -5 -10 -11 -10 -5 0 -7 5 -4 10 3 6
8 10 11 10 2 0 4 -4 4 -10z m86 -66 c-10 -14 -20 -23 -23 -20 -3 3 2 17 11 32
10 14 20 23 23 20 3 -3 -2 -17 -11 -32z m-164 -36 c-7 -7 -12 -8 -12 -2 0 14
12 26 19 19 2 -3 -1 -11 -7 -17z m128 -12 c0 -3 -4 -8 -10 -11 -5 -3 -10 -1
-10 4 0 6 5 11 10 11 6 0 10 -2 10 -4z m-156 -21 c-4 -8 -11 -15 -16 -15 -6 0
-5 6 2 15 7 8 14 15 16 15 2 0 1 -7 -2 -15z m737 -115 c17 0 34 -28 24 -38 -7
-8 -58 31 -63 49 -4 11 -2 12 9 2 7 -7 21 -13 30 -13z m119 -11 c0 -5 -4 -9
-10 -9 -5 0 -10 7 -10 16 0 8 5 12 10 9 6 -3 10 -10 10 -16z m210 -290 c0 -7
-6 -7 -17 2 -15 13 -16 11 -10 -13 13 -50 -11 -38 -33 16 -12 30 -33 69 -46
87 -13 18 -24 38 -24 43 1 14 130 -121 130 -135z m-1130 86 c0 -8 -4 -15 -10
-15 -5 0 -7 7 -4 15 4 8 8 15 10 15 2 0 4 -7 4 -15z m910 -46 c0 -6 -4 -7 -10
-4 -5 3 -10 11 -10 16 0 6 5 7 10 4 6 -3 10 -11 10 -16z"/>
<path d="M7691 3718 c-49 -11 -101 -44 -101 -65 0 -7 7 -13 16 -13 10 0 6 -7
-13 -23 -47 -38 -83 -58 -99 -55 -16 3 -27 -10 -38 -45 -4 -14 -12 -17 -28
-12 -18 5 -20 4 -8 -4 8 -6 26 -11 40 -11 21 0 14 -10 -53 -75 -72 -70 -97
-87 -97 -67 0 4 6 16 13 27 7 11 24 38 37 60 l24 40 -24 -20 c-64 -55 -189
-284 -221 -405 -12 -47 -30 -99 -41 -117 -10 -17 -21 -56 -24 -85 -3 -29 -12
-80 -19 -113 -24 -105 -27 -203 -11 -335 8 -69 19 -138 25 -153 6 -16 11 -44
11 -63 0 -35 8 -42 27 -23 8 8 19 0 42 -31 36 -50 40 -74 12 -65 -18 5 -17 1
8 -47 90 -173 173 -240 382 -306 94 -30 167 -45 282 -57 31 -4 57 -11 57 -16
0 -5 14 -9 32 -9 17 0 61 -7 96 -16 54 -14 74 -15 118 -5 48 11 83 31 55 31
-21 0 -10 19 23 39 41 26 65 29 46 6 -13 -16 -1 -21 15 -6 6 5 27 14 48 21 23
7 52 29 75 56 20 25 77 81 127 126 114 104 168 173 160 208 -4 18 9 53 46 125
28 55 44 93 34 85 -16 -14 -17 -13 -11 8 4 12 5 22 2 22 -2 0 -12 -24 -22 -52
-9 -29 -25 -64 -34 -78 -36 -52 -69 -128 -64 -148 5 -15 -15 -42 -85 -114 -57
-58 -91 -87 -91 -76 0 10 30 47 66 83 37 36 64 69 60 72 -4 4 -20 -9 -36 -28
-51 -59 -32 -13 33 82 80 117 110 169 144 249 39 94 91 139 63 55 -18 -54 -5
-54 16 0 14 37 15 48 5 55 -10 6 -12 27 -7 81 13 157 17 180 31 169 10 -8 10
0 3 42 -5 29 -16 64 -23 78 -8 17 -10 33 -4 49 6 14 6 28 0 35 -4 6 -14 29
-21 51 -7 22 -21 51 -30 65 -10 14 -21 36 -25 50 -15 50 -58 127 -116 207 -33
45 -66 98 -75 118 -8 19 -20 35 -26 35 -15 0 -68 50 -68 65 0 17 -44 55 -64
55 -9 0 -51 19 -92 41 -41 23 -96 47 -122 54 l-47 13 72 -1 c70 -1 74 -2 113
-40 23 -21 44 -36 48 -32 3 3 1 9 -5 13 -7 4 -17 20 -22 35 -6 16 -15 25 -21
22 -5 -3 -22 3 -37 14 -39 28 -181 45 -314 38 -58 -4 -113 -9 -123 -13 -11 -4
-16 -2 -14 7 2 10 -11 16 -42 19 l-45 5 30 12 30 11 -30 0 c-16 0 -50 -5 -74
-10z m333 -94 c7 -3 11 -21 10 -43 l-2 -38 57 -6 c31 -3 73 -11 93 -17 103
-30 308 -220 353 -327 8 -18 21 -33 29 -33 8 0 28 -30 47 -67 30 -63 36 -88
57 -215 5 -25 13 -53 20 -60 6 -8 14 -34 17 -58 l6 -45 -26 30 c-15 17 -24 24
-20 17 12 -23 -17 -205 -46 -287 -16 -45 -47 -105 -69 -134 -21 -28 -81 -118
-132 -198 -107 -168 -171 -243 -231 -272 -63 -30 -185 -51 -294 -51 -114 0
-140 6 -148 30 -3 9 -24 25 -46 35 -23 11 -38 24 -35 31 6 15 -26 43 -78 69
-58 29 -109 107 -146 221 -7 21 -18 46 -25 54 -43 50 -43 245 -1 415 67 272
116 384 244 562 37 52 141 145 198 177 26 15 27 16 4 10 -14 -4 -32 -9 -40
-12 -29 -11 9 26 55 52 23 14 45 32 48 40 9 22 -4 56 -20 56 -8 0 -11 5 -8 10
3 6 19 10 36 10 16 0 29 5 29 10 0 6 -11 10 -24 10 -32 0 -55 26 -29 33 18 5
96 -1 117 -9z m-390 -36 c-17 -30 -38 -48 -57 -48 -11 0 -30 -12 -44 -26 -13
-14 -29 -24 -36 -21 -27 9 -9 33 53 69 67 39 97 48 84 26z m-204 -202 c0 -2
-7 -9 -15 -16 -13 -11 -14 -10 -9 4 5 14 24 23 24 12z m-54 -73 c-2 -21 -23
-78 -46 -126 -39 -80 -44 -97 -46 -170 -1 -45 -7 -94 -13 -109 -6 -15 -24
-101 -41 -190 -17 -90 -35 -173 -40 -185 -6 -15 -6 -23 1 -23 5 0 9 -26 8 -62
0 -35 4 -79 10 -98 6 -19 11 -42 11 -50 0 -25 -18 8 -31 58 -16 61 -26 60 -34
-3 -11 -89 -27 -68 -58 75 -25 115 -16 291 18 345 6 11 12 34 13 50 2 77 36
196 85 298 50 103 67 126 67 91 0 -10 10 -2 25 20 14 20 25 44 25 53 0 14 36
63 47 63 2 0 1 -17 -1 -37z m40 -8 c-9 -14 -21 -25 -27 -25 -11 0 -4 15 19 43
22 25 28 12 8 -18z m-146 -25 c-6 -11 -15 -20 -20 -20 -6 0 -5 9 2 20 7 11 16
20 21 20 4 0 3 -9 -3 -20z m353 -65 c-3 -9 -8 -14 -10 -11 -3 3 -2 9 2 15 9
16 15 13 8 -4z m1106 -221 c44 -132 51 -169 27 -144 -15 16 -86 245 -86 276 1
31 14 2 59 -132z m-1341 6 c-7 -11 -16 -20 -21 -20 -4 0 -3 9 3 20 6 11 15 20
20 20 6 0 5 -9 -2 -20z m-59 -145 c-13 -25 -31 -53 -41 -62 -17 -15 -18 -14
-12 33 8 56 16 75 47 106 l22 23 3 -28 c2 -15 -7 -47 -19 -72z m-232 -37 c-3
-8 -6 -5 -6 6 -1 11 2 17 5 13 3 -3 4 -12 1 -19z m1697 -68 c7 -24 6 -24 -8
-6 -9 11 -16 29 -16 40 1 17 2 18 9 6 5 -8 12 -26 15 -40z m-1547 -543 c-2
-36 5 -55 36 -101 21 -32 36 -60 33 -63 -11 -11 -106 140 -106 170 0 14 19 37
31 37 4 0 7 -20 6 -43z m-139 -8 c-3 -8 -7 -3 -11 10 -4 17 -3 21 5 13 5 -5 8
-16 6 -23z m180 -263 c39 -39 99 -87 144 -112 42 -25 81 -51 88 -59 6 -8 35
-21 63 -29 29 -8 61 -22 72 -30 13 -10 -8 -7 -65 11 -98 29 -238 97 -247 118
-3 8 -20 22 -39 31 -18 9 -36 25 -40 36 -3 10 -19 34 -34 52 -16 18 -32 45
-35 62 -6 28 -6 28 10 9 8 -11 46 -51 83 -89z"/>
<path d="M8634 2877 c5 -35 24 -73 32 -64 2 2 -6 25 -17 53 l-20 49 5 -38z"/>
<path d="M5060 3701 l35 -6 -35 -19 c-30 -17 -32 -20 -16 -26 28 -9 9 -18 -70
-30 -126 -20 -345 -146 -386 -224 -10 -18 -9 -19 4 -9 22 18 31 3 11 -19 -22
-25 -12 -32 23 -14 16 8 37 17 47 20 9 3 17 13 17 21 0 9 -5 13 -11 9 -6 -3
-4 5 5 18 9 14 27 31 41 38 14 8 37 29 51 47 15 20 34 33 48 33 13 0 37 5 55
11 40 14 53 4 17 -12 -17 -8 -26 -20 -26 -35 0 -17 -11 -29 -39 -44 -40 -20
-194 -172 -240 -235 -36 -52 -57 -46 -30 8 l21 42 -53 -52 c-44 -42 -57 -50
-71 -42 -15 8 -18 6 -18 -14 0 -12 -5 -28 -12 -35 -9 -9 -9 -12 0 -12 6 0 16
9 22 20 6 11 15 20 20 20 19 0 10 -30 -17 -61 -27 -29 -48 -69 -37 -69 2 0 18
16 35 35 36 40 54 45 43 13 l-6 -23 26 24 c25 24 26 24 26 4 0 -11 -7 -26 -14
-33 -27 -21 -56 -78 -43 -83 9 -3 0 -53 -30 -173 -25 -103 -39 -181 -36 -200
3 -18 0 -35 -6 -38 -8 -5 -7 -12 3 -21 10 -10 14 -36 13 -82 -1 -81 8 -115 31
-111 10 2 18 -7 22 -27 4 -16 31 -70 59 -120 29 -49 55 -106 58 -125 6 -35 6
-35 -15 -16 -12 10 -26 34 -32 52 -14 41 -35 46 -25 7 l7 -28 -34 30 c-18 17
-37 37 -42 45 -8 12 -10 11 -16 -5 -6 -18 -9 -16 -29 15 -12 19 -19 43 -17 54
3 10 1 26 -4 35 -15 27 -30 107 -30 156 0 26 -5 55 -10 65 -8 14 -5 28 12 57
17 29 18 35 5 24 -15 -12 -17 -11 -17 11 0 14 9 33 20 43 14 13 20 30 19 59
-1 23 -3 33 -6 24 -7 -28 -23 -21 -23 10 0 21 -2 24 -10 12 -8 -13 -10 -12
-10 4 0 10 11 29 25 42 14 13 25 32 25 43 0 11 6 19 13 17 6 -1 9 -1 5 1 -14
8 -8 32 10 42 13 7 14 13 5 22 -17 18 -28 5 -49 -58 -19 -57 -19 -57 -22 -23
-4 34 -4 34 -22 -23 -10 -32 -16 -66 -13 -77 5 -18 -5 -25 -29 -21 -5 0 -8
-11 -8 -27 0 -19 3 -23 9 -13 10 16 31 6 31 -14 0 -9 -9 -14 -22 -12 -20 2
-23 -4 -31 -50 -10 -60 -23 -69 -31 -20 -2 17 -2 -31 0 -108 5 -123 8 -141 25
-153 13 -9 19 -25 19 -52 0 -21 6 -45 13 -52 25 -25 41 -62 28 -66 -20 -7 -13
-42 9 -42 12 0 22 -9 26 -24 4 -17 11 -23 22 -19 12 5 14 1 10 -15 -4 -14 2
-28 18 -43 13 -12 24 -30 24 -39 0 -20 43 -45 64 -37 11 4 16 1 16 -11 1 -20
42 -62 85 -86 17 -10 48 -28 70 -41 48 -28 55 -29 55 -11 0 11 17 10 91 -6 79
-18 97 -19 130 -8 22 7 42 10 46 7 3 -4 1 -7 -5 -7 -6 0 -16 -10 -23 -21 -11
-21 -10 -21 47 -14 33 4 65 12 72 17 8 7 40 9 87 5 43 -4 75 -3 75 2 0 5 15
15 34 21 19 6 40 18 47 26 6 8 32 23 57 34 52 23 84 49 76 61 -2 4 7 16 21 25
14 9 25 21 25 26 0 5 11 24 24 41 13 18 40 70 60 116 20 46 46 95 56 109 22
28 26 68 8 74 -8 3 -5 13 10 33 12 15 22 35 22 44 0 10 16 43 35 75 19 32 35
69 35 81 0 29 10 55 20 55 5 0 6 -19 4 -42 l-4 -43 16 34 c12 27 13 43 6 73
-7 28 -6 48 5 80 12 34 14 70 9 168 -4 69 -7 138 -8 153 0 15 -6 26 -12 24 -7
-2 -10 -23 -8 -53 5 -71 2 -156 -5 -168 -11 -17 -23 44 -29 144 -3 52 -10 99
-15 105 -5 5 -9 25 -9 45 0 20 -7 45 -15 56 -14 17 -15 14 -9 -39 4 -36 2 -68
-6 -86 -10 -25 -8 -35 10 -72 20 -37 20 -44 7 -54 -12 -8 -13 -20 -7 -55 5
-25 6 -48 4 -52 -12 -19 -22 -5 -28 37 -4 24 -12 48 -18 51 -7 5 -9 -2 -6 -20
3 -14 2 -26 -2 -26 -10 0 -41 36 -35 41 4 4 6 127 3 174 0 11 -5 22 -9 25 -5
4 -11 31 -13 60 -2 30 -11 72 -20 93 -11 24 -12 37 -5 37 16 0 2 50 -21 75
-20 21 -60 108 -60 129 0 7 -9 39 -20 72 -12 32 -22 65 -24 72 -3 17 -86 72
-109 72 -10 0 -33 11 -51 25 -18 14 -37 25 -42 25 -5 0 -2 -5 6 -11 14 -10
-37 -8 -180 5 -35 3 -37 2 -10 -3z m346 -309 c45 -37 54 -52 32 -52 -8 -1 -6
-6 5 -14 9 -7 17 -19 17 -26 0 -7 18 -39 40 -72 22 -33 40 -71 40 -84 0 -13 3
-24 8 -24 4 0 8 -24 9 -54 1 -30 9 -68 17 -85 20 -37 20 -41 2 -41 -19 0 -26
12 -31 52 -5 41 -35 108 -48 108 -6 0 -8 -22 -4 -56 5 -45 3 -53 -7 -45 -11 9
-12 3 -5 -31 11 -59 11 -317 0 -375 -6 -26 -17 -86 -26 -132 -23 -120 -69
-205 -168 -308 -44 -46 -95 -91 -112 -99 -16 -7 -54 -27 -84 -44 -63 -35 -130
-40 -226 -15 -144 38 -206 133 -220 339 -5 63 -10 94 -16 85 -6 -9 -9 3 -9 36
0 28 5 57 10 65 8 13 10 12 10 -4 0 -27 6 -17 13 21 5 26 3 31 -8 26 -21 -7
-19 19 4 70 11 23 27 71 36 107 19 74 68 183 95 210 18 18 24 29 68 114 13 24
43 63 67 85 25 23 44 44 44 47 -2 13 56 64 73 64 11 0 18 7 18 19 0 10 25 42
56 70 40 37 72 56 117 70 84 26 128 19 183 -27z m-751 -252 c-27 -53 -45 -64
-45 -28 0 21 45 78 62 78 5 0 -3 -22 -17 -50z m-65 -380 c0 -5 -5 -10 -11 -10
-5 0 -7 5 -4 10 3 6 8 10 11 10 2 0 4 -4 4 -10z m-3 -104 c-12 -44 -28 -81
-35 -84 -14 -4 -16 24 -2 33 5 3 14 24 20 47 15 55 30 92 35 87 2 -3 -6 -40
-18 -83z m1170 52 c-3 -8 -6 -5 -6 6 -1 11 2 17 5 13 3 -3 4 -12 1 -19z
m-1407 -42 c0 -3 -4 -8 -10 -11 -5 -3 -10 -1 -10 4 0 6 5 11 10 11 6 0 10 -2
10 -4z m175 -53 c-4 -27 -11 -52 -16 -57 -11 -13 -11 -8 2 54 14 63 24 65 14
3z m-54 -62 c0 -83 -5 -106 -22 -96 -10 7 -13 178 -2 189 16 15 24 -16 24 -93z
m1144 42 c-9 -37 -18 -20 -9 19 4 18 9 27 11 20 3 -7 2 -24 -2 -39z m-1118
-75 c-3 -8 -6 -5 -6 6 -1 11 2 17 5 13 3 -3 4 -12 1 -19z m25 -70 c-7 -7 -12
-8 -12 -2 0 14 12 26 19 19 2 -3 -1 -11 -7 -17z m-253 -88 c0 -26 -2 -31 -9
-20 -5 8 -9 38 -9 65 1 44 2 46 9 20 4 -16 8 -46 9 -65z m301 -334 c0 -5 -9
-1 -20 9 -11 10 -17 22 -14 27 6 9 33 -20 34 -36z m74 -1 c3 -8 1 -15 -4 -15
-6 0 -10 7 -10 15 0 8 2 15 4 15 2 0 6 -7 10 -15z m56 -113 c-10 -4 -100 44
-100 53 0 3 25 -7 56 -22 30 -15 50 -29 44 -31z"/>
<path d="M4913 3679 c-18 -5 -34 -13 -37 -18 -7 -10 69 10 80 22 9 9 -2 8 -43
-4z"/>
<path d="M3631 3653 c0 -25 1 -26 9 -8 12 27 12 35 0 35 -5 0 -10 -12 -9 -27z"/>
<path d="M6307 3636 c-4 -15 -6 -31 -2 -34 10 -10 16 6 13 35 l-3 28 -8 -29z"/>
<path d="M4774 3588 l-19 -23 23 19 c12 11 22 21 22 23 0 8 -8 2 -26 -19z"/>
<path d="M3651 3540 c0 -33 1 -34 11 -12 8 17 8 26 0 34 -9 9 -12 4 -11 -22z"/>
<path d="M5560 3495 c7 -9 15 -13 17 -11 7 7 -7 26 -19 26 -6 0 -6 -6 2 -15z"/>
<path d="M3703 3315 c0 -22 2 -30 4 -17 2 12 2 30 0 40 -3 9 -5 -1 -4 -23z"/>
<path d="M6317 3343 c-9 -9 -9 -45 1 -60 4 -6 8 6 8 28 1 41 1 43 -9 32z"/>
<path d="M3742 3210 c0 -14 2 -19 5 -12 2 6 2 18 0 25 -3 6 -5 1 -5 -13z"/>
<path d="M5610 3195 c0 -5 5 -17 10 -25 5 -8 10 -10 10 -5 0 6 -5 17 -10 25
-5 8 -10 11 -10 5z"/>
<path d="M2607 3072 c-10 -10 -17 -24 -17 -32 0 -7 10 -1 21 14 24 31 21 45
-4 18z"/>
<path d="M5650 3058 c0 -13 5 -30 10 -38 7 -11 10 -7 10 17 0 17 -4 35 -10 38
-6 3 -10 -4 -10 -17z"/>
<path d="M8791 3040 c0 -8 11 -37 25 -65 13 -27 21 -39 18 -25 -9 37 -42 107
-43 90z"/>
<path d="M4380 3019 c-7 -11 -10 -23 -7 -25 2 -2 9 7 15 21 14 30 7 33 -8 4z"/>
<path d="M3692 2965 c0 -16 2 -22 5 -12 2 9 2 23 0 30 -3 6 -5 -1 -5 -18z"/>
<path d="M6221 2974 c0 -11 3 -14 6 -6 3 7 2 16 -1 19 -3 4 -6 -2 -5 -13z"/>
<path d="M4382 2958 c-5 -7 -12 -23 -16 -35 -3 -13 -9 -33 -12 -45 -11 -40 6
-12 26 41 19 53 19 60 2 39z"/>
<path d="M6186 2920 c-4 -28 -11 -50 -16 -50 -6 0 -10 -11 -10 -24 0 -16 7
-26 23 -30 33 -9 35 -8 30 18 -4 19 0 24 29 31 20 5 27 9 17 12 -9 2 -25 22
-34 44 -10 22 -22 42 -25 44 -4 3 -10 -18 -14 -45z"/>
<path d="M3738 2954 c-5 -4 -8 -35 -7 -68 1 -56 2 -58 10 -28 11 38 8 108 -3
96z"/>
<path d="M4447 2923 c-4 -3 -7 -11 -7 -17 0 -6 5 -5 12 2 6 6 9 14 7 17 -3 3
-9 2 -12 -2z"/>
<path d="M2080 2912 c0 -12 19 -26 26 -19 2 2 -2 10 -11 17 -9 8 -15 8 -15 2z"/>
<path d="M2120 2870 c0 -5 5 -10 11 -10 5 0 7 5 4 10 -3 6 -8 10 -11 10 -2 0
-4 -4 -4 -10z"/>
<path d="M3636 2802 c-4 -19 -7 -68 -6 -110 3 -100 2 -114 -10 -107 -15 9 -12
-32 4 -64 21 -40 41 -53 69 -46 31 8 96 67 79 73 -6 2 -12 10 -12 18 0 9 4 13
9 10 18 -12 30 23 36 105 l7 84 -20 -24 -20 -25 -26 30 -25 29 -1 -27 c0 -37
-17 -36 -25 2 -9 39 -22 46 -32 18 -6 -19 -8 -16 -13 22 l-6 45 -8 -33z m29
-122 c-5 -16 -9 -19 -15 -10 -11 17 0 54 12 42 6 -6 7 -20 3 -32z m126 -13
c-8 -8 -11 -3 -11 19 1 25 2 27 11 11 8 -14 8 -22 0 -30z"/>
<path d="M8845 2789 c-4 -5 0 -18 8 -27 8 -9 17 -24 21 -32 3 -8 4 -4 1 10 -2
14 -5 33 -5 43 0 19 -15 23 -25 6z"/>
<path d="M4396 2765 c-9 -26 -7 -32 5 -12 6 10 9 21 6 23 -2 3 -7 -2 -11 -11z"/>
<path d="M4292 2740 c0 -14 2 -19 5 -12 2 6 2 18 0 25 -3 6 -5 1 -5 -13z"/>
<path d="M8960 2677 c0 -7 -5 -43 -10 -82 -5 -38 -5 -95 -1 -125 6 -53 7 -54
20 -31 8 14 16 70 19 131 4 93 3 108 -12 113 -9 4 -16 1 -16 -6z"/>
<path d="M4242 2630 c0 -14 2 -19 5 -12 2 6 2 18 0 25 -3 6 -5 1 -5 -13z"/>
<path d="M2330 2621 c0 -5 5 -13 10 -16 6 -3 10 -2 10 4 0 5 -4 13 -10 16 -5
3 -10 2 -10 -4z"/>
<path d="M2570 2575 c13 -14 32 -25 43 -25 18 0 16 3 -9 25 -39 34 -66 34 -34
0z"/>
<path d="M2430 2520 c0 -5 5 -10 11 -10 5 0 7 5 4 10 -3 6 -8 10 -11 10 -2 0
-4 -4 -4 -10z"/>
<path d="M2576 2511 c-4 -6 -13 -8 -21 -4 -8 3 -15 1 -15 -4 0 -15 30 -53 42
-53 6 0 3 9 -6 19 -17 18 -17 20 1 29 10 6 15 13 11 17 -3 3 -9 2 -12 -4z"/>
<path d="M4450 2303 c0 -37 8 -63 21 -63 9 0 1 56 -12 80 -6 11 -8 6 -9 -17z"/>
<path d="M2779 2203 c4 -14 17 -33 29 -41 l21 -14 -20 41 c-22 46 -41 55 -30
14z"/>
<path d="M4490 2184 c0 -17 17 -36 24 -26 3 5 -1 15 -9 22 -8 7 -15 9 -15 4z"/>
<path d="M7116 2115 c-9 -23 -8 -25 9 -25 17 0 19 9 6 28 -7 11 -10 10 -15 -3z"/>
<path d="M3405 1960 c10 -11 20 -20 23 -20 3 0 -3 9 -13 20 -10 11 -20 20 -23
20 -3 0 3 -9 13 -20z"/>
<path d="M8600 1912 c0 -7 -6 -12 -12 -12 -7 0 -28 -19 -47 -41 -21 -26 -27
-37 -15 -31 29 16 89 81 81 89 -4 3 -7 1 -7 -5z"/>
</g>
</svg>
